G04 #@! TF.FileFunction,Copper,L2,Bot,Signal*
%FSLAX46Y46*%
G04 Gerber Fmt 4.6, Leading zero omitted, Abs format (unit mm)*
G04 Created by KiCad (PCBNEW 4.0.2-stable) date 13/08/2017 21:16:23*
%MOMM*%
G01*
G04 APERTURE LIST*
%ADD10C,0.100000*%
%ADD11C,2.000000*%
%ADD12O,4.700000X2.000000*%
%ADD13O,2.000000X4.700000*%
%ADD14C,4.064000*%
%ADD15C,1.700000*%
%ADD16O,1.700000X1.700000*%
%ADD17C,0.508000*%
%ADD18C,0.304800*%
%ADD19C,0.508000*%
%ADD20C,0.355600*%
%ADD21C,0.406400*%
%ADD22C,0.254000*%
G04 APERTURE END LIST*
D10*
D11*
X105735000Y-69669134D02*
X104385000Y-67330866D01*
X93390866Y-73175000D02*
X95729134Y-71825000D01*
D12*
X93060000Y-68500000D03*
D11*
X93729134Y-64175000D02*
X91390866Y-62825000D01*
X93735000Y-59669134D02*
X92385000Y-57330866D01*
D13*
X94560000Y-54500000D03*
D11*
X98385000Y-54669134D02*
X99735000Y-52330866D01*
X102390866Y-55175000D02*
X104729134Y-53825000D01*
D12*
X105060000Y-58500000D03*
D11*
X106729134Y-64175000D02*
X104390866Y-62825000D01*
D13*
X103560000Y-72500000D03*
D11*
X98385000Y-74669134D02*
X99735000Y-72330866D01*
X151455000Y-69669134D02*
X150105000Y-67330866D01*
X139110866Y-73175000D02*
X141449134Y-71825000D01*
D12*
X138780000Y-68500000D03*
D11*
X139449134Y-64175000D02*
X137110866Y-62825000D01*
X139455000Y-59669134D02*
X138105000Y-57330866D01*
D13*
X140280000Y-54500000D03*
D11*
X144105000Y-54669134D02*
X145455000Y-52330866D01*
X148110866Y-55175000D02*
X150449134Y-53825000D01*
D12*
X150780000Y-58500000D03*
D11*
X152449134Y-64175000D02*
X150110866Y-62825000D01*
D13*
X149280000Y-72500000D03*
D11*
X144105000Y-74669134D02*
X145455000Y-72330866D01*
X174315000Y-69669134D02*
X172965000Y-67330866D01*
X161970866Y-73175000D02*
X164309134Y-71825000D01*
D12*
X161640000Y-68500000D03*
D11*
X162309134Y-64175000D02*
X159970866Y-62825000D01*
X162315000Y-59669134D02*
X160965000Y-57330866D01*
D13*
X163140000Y-54500000D03*
D11*
X166965000Y-54669134D02*
X168315000Y-52330866D01*
X170970866Y-55175000D02*
X173309134Y-53825000D01*
D12*
X173640000Y-58500000D03*
D11*
X175309134Y-64175000D02*
X172970866Y-62825000D01*
D13*
X172140000Y-72500000D03*
D11*
X166965000Y-74669134D02*
X168315000Y-72330866D01*
X197175000Y-69669134D02*
X195825000Y-67330866D01*
X184830866Y-73175000D02*
X187169134Y-71825000D01*
D12*
X184500000Y-68500000D03*
D11*
X185169134Y-64175000D02*
X182830866Y-62825000D01*
X185175000Y-59669134D02*
X183825000Y-57330866D01*
D13*
X186000000Y-54500000D03*
D11*
X189825000Y-54669134D02*
X191175000Y-52330866D01*
X193830866Y-55175000D02*
X196169134Y-53825000D01*
D12*
X196500000Y-58500000D03*
D11*
X198169134Y-64175000D02*
X195830866Y-62825000D01*
D13*
X195000000Y-72500000D03*
D11*
X189825000Y-74669134D02*
X191175000Y-72330866D01*
X220035000Y-69669134D02*
X218685000Y-67330866D01*
X207690866Y-73175000D02*
X210029134Y-71825000D01*
D12*
X207360000Y-68500000D03*
D11*
X208029134Y-64175000D02*
X205690866Y-62825000D01*
X208035000Y-59669134D02*
X206685000Y-57330866D01*
D13*
X208860000Y-54500000D03*
D11*
X212685000Y-54669134D02*
X214035000Y-52330866D01*
X216690866Y-55175000D02*
X219029134Y-53825000D01*
D12*
X219360000Y-58500000D03*
D11*
X221029134Y-64175000D02*
X218690866Y-62825000D01*
D13*
X217860000Y-72500000D03*
D11*
X212685000Y-74669134D02*
X214035000Y-72330866D01*
X128595000Y-69669134D02*
X127245000Y-67330866D01*
X116250866Y-73175000D02*
X118589134Y-71825000D01*
D12*
X115920000Y-68500000D03*
D11*
X116589134Y-64175000D02*
X114250866Y-62825000D01*
X116595000Y-59669134D02*
X115245000Y-57330866D01*
D13*
X117420000Y-54500000D03*
D11*
X121245000Y-54669134D02*
X122595000Y-52330866D01*
X125250866Y-55175000D02*
X127589134Y-53825000D01*
D12*
X127920000Y-58500000D03*
D11*
X129589134Y-64175000D02*
X127250866Y-62825000D01*
D13*
X126420000Y-72500000D03*
D11*
X121245000Y-74669134D02*
X122595000Y-72330866D01*
D14*
X244500000Y-47500000D03*
X244500000Y-74500000D03*
X76000000Y-47500000D03*
X76000000Y-74500000D03*
D15*
X58420000Y-49530000D03*
D16*
X58420000Y-52070000D03*
X58420000Y-54610000D03*
X58420000Y-57150000D03*
X58420000Y-59690000D03*
X58420000Y-62230000D03*
X58420000Y-64770000D03*
X58420000Y-67310000D03*
X58420000Y-69850000D03*
X58420000Y-72390000D03*
D17*
X63609220Y-55036720D03*
X192625980Y-61889640D03*
X131978400Y-63809880D03*
X119753380Y-62316360D03*
X211353400Y-61925200D03*
X241574320Y-60990480D03*
X65859660Y-68435220D03*
X97215960Y-61981080D03*
X66781680Y-49748440D03*
X62417960Y-53980080D03*
X60154820Y-58338720D03*
X240385600Y-75057000D03*
X62646560Y-69230240D03*
X64434720Y-70449440D03*
X237241080Y-64571880D03*
X232714800Y-56591200D03*
X219570300Y-56502300D03*
X205943200Y-60167520D03*
X199745600Y-60309760D03*
X193222880Y-58928000D03*
X182615840Y-59984640D03*
X176517300Y-57759600D03*
X166364920Y-56509920D03*
X134035800Y-51625500D03*
X136131300Y-53873400D03*
X132161280Y-59740800D03*
X130347720Y-59801760D03*
X114134900Y-70772020D03*
X242691920Y-71114920D03*
X71130160Y-50566320D03*
X92308680Y-53690520D03*
X64592200Y-53390800D03*
X241726720Y-63560960D03*
X185455560Y-62529720D03*
X131810760Y-62087760D03*
X68884800Y-62865000D03*
X69532500Y-64640460D03*
X131663440Y-60888880D03*
X136916160Y-60761880D03*
X153184860Y-59768740D03*
X163758880Y-60573920D03*
X175679100Y-60007500D03*
X185874660Y-61744860D03*
X240761520Y-63520320D03*
X69067680Y-67543680D03*
X96641920Y-68511420D03*
X211028280Y-68526660D03*
X190484760Y-67594480D03*
X119679720Y-68503800D03*
X101795580Y-68524120D03*
X214228680Y-69616320D03*
X193042540Y-68419980D03*
X124251720Y-68610480D03*
X98572320Y-58475880D03*
X122941080Y-57322720D03*
X191521080Y-57528460D03*
X212872320Y-58420000D03*
X182311040Y-54762400D03*
X131536440Y-56570880D03*
X79438500Y-72923400D03*
X85598000Y-68453000D03*
X75311000Y-64516000D03*
X85979000Y-67691000D03*
X75692000Y-65151000D03*
X86360000Y-66929000D03*
X76073000Y-65786000D03*
X86741000Y-66167000D03*
X76454000Y-66421000D03*
X87122000Y-65532000D03*
X76835000Y-67056000D03*
X77216000Y-67691000D03*
X87503000Y-64897000D03*
X87884000Y-64262000D03*
X77597000Y-68326000D03*
X82202020Y-57759600D03*
X79750000Y-50500000D03*
X81473040Y-57109360D03*
X79750000Y-56500000D03*
X79750000Y-55750000D03*
X79750000Y-55000000D03*
X79750000Y-54250000D03*
X79750000Y-53500000D03*
X79750000Y-52750000D03*
X79750000Y-52000000D03*
X79750000Y-51250000D03*
X235204000Y-55372000D03*
X79750000Y-49750000D03*
X79750000Y-49000000D03*
X240538000Y-55372000D03*
X239776000Y-55372000D03*
X239014000Y-55372000D03*
X238252000Y-55372000D03*
X237490000Y-55372000D03*
X236728000Y-55372000D03*
X235966000Y-55372000D03*
X234442000Y-55372000D03*
X233680000Y-55372000D03*
X232918000Y-55372000D03*
X69027040Y-61493400D03*
X132389880Y-63037720D03*
X182758080Y-65430400D03*
X233184700Y-58590180D03*
X239001300Y-71724520D03*
X239471200Y-72420480D03*
X240418620Y-71610220D03*
X241241580Y-71734680D03*
X222300800Y-72415400D03*
D18*
X65491360Y-57137300D02*
X65491360Y-56918860D01*
X65491360Y-57137300D02*
X65491360Y-62334140D01*
X65491360Y-62334140D02*
X68955920Y-65798700D01*
X70261480Y-65798700D02*
X68955920Y-65798700D01*
X65491360Y-56918860D02*
X63609220Y-55036720D01*
D19*
X96520000Y-62677040D02*
X96520000Y-63461900D01*
X97215960Y-61981080D02*
X96520000Y-62677040D01*
X69387720Y-68435220D02*
X65859660Y-68435220D01*
X70261480Y-67561460D02*
X69387720Y-68435220D01*
X70261480Y-65140840D02*
X70261480Y-65798700D01*
X70261480Y-65798700D02*
X70261480Y-67561460D01*
X73342498Y-62059822D02*
X70261480Y-65140840D01*
X88577422Y-62059822D02*
X73342498Y-62059822D01*
X92141040Y-65623440D02*
X88577422Y-62059822D01*
X94358460Y-65623440D02*
X92141040Y-65623440D01*
X96520000Y-63461900D02*
X94358460Y-65623440D01*
X193098420Y-61417200D02*
X197418960Y-61417200D01*
X192625980Y-61889640D02*
X193098420Y-61417200D01*
X213238080Y-61904880D02*
X213238080Y-61925200D01*
X213131400Y-61904880D02*
X213238080Y-61904880D01*
X208567022Y-66469258D02*
X213131400Y-61904880D01*
X202471018Y-66469258D02*
X208567022Y-66469258D01*
X197418960Y-61417200D02*
X202471018Y-66469258D01*
X120362980Y-61379100D02*
X128938020Y-61379100D01*
X119753380Y-61988700D02*
X120362980Y-61379100D01*
X119753380Y-62316360D02*
X119753380Y-61988700D01*
X131368800Y-63809880D02*
X131978400Y-63809880D01*
X128938020Y-61379100D02*
X131368800Y-63809880D01*
X103591360Y-61386720D02*
X105996740Y-61386720D01*
X102997000Y-61981080D02*
X103591360Y-61386720D01*
X97215960Y-61981080D02*
X102997000Y-61981080D01*
X119753380Y-64071500D02*
X119753380Y-62316360D01*
X117530882Y-66293998D02*
X119753380Y-64071500D01*
X110904018Y-66293998D02*
X117530882Y-66293998D01*
X105996740Y-61386720D02*
X110904018Y-66293998D01*
X211353400Y-61925200D02*
X213238080Y-61925200D01*
X213238080Y-61925200D02*
X217134440Y-61925200D01*
X217134440Y-61925200D02*
X217733880Y-61325760D01*
X217733880Y-61325760D02*
X241239040Y-61325760D01*
X241239040Y-61325760D02*
X241574320Y-60990480D01*
D18*
X66563240Y-49530000D02*
X58420000Y-49530000D01*
X66781680Y-49748440D02*
X66563240Y-49530000D01*
X62417960Y-53980080D02*
X60154820Y-56243220D01*
X60154820Y-56243220D02*
X60154820Y-58338720D01*
X244500000Y-74500000D02*
X240942600Y-74500000D01*
X240942600Y-74500000D02*
X240385600Y-75057000D01*
D20*
X63215520Y-69230240D02*
X62646560Y-69230240D01*
X64434720Y-70449440D02*
X63215520Y-69230240D01*
D18*
X79500000Y-75500000D02*
X94806540Y-75500000D01*
X78500000Y-74500000D02*
X79500000Y-75500000D01*
X76000000Y-74500000D02*
X78500000Y-74500000D01*
X242691920Y-70022720D02*
X242691920Y-71114920D01*
X237241080Y-64571880D02*
X242691920Y-70022720D01*
X219659200Y-56591200D02*
X232714800Y-56591200D01*
X219570300Y-56502300D02*
X219659200Y-56591200D01*
X199887840Y-60167520D02*
X205943200Y-60167520D01*
X199745600Y-60309760D02*
X199887840Y-60167520D01*
X191739520Y-58928000D02*
X193222880Y-58928000D01*
X189562740Y-61104780D02*
X191739520Y-58928000D01*
X185508900Y-61104780D02*
X189562740Y-61104780D01*
X185287920Y-61325760D02*
X185508900Y-61104780D01*
X184261760Y-61325760D02*
X185287920Y-61325760D01*
X183977280Y-61041280D02*
X184261760Y-61325760D01*
X183672480Y-61041280D02*
X183977280Y-61041280D01*
X182615840Y-59984640D02*
X183672480Y-61041280D01*
X175056800Y-56299100D02*
X176517300Y-57759600D01*
X171942760Y-56299100D02*
X175056800Y-56299100D01*
X170992800Y-57249060D02*
X171942760Y-56299100D01*
X167104060Y-57249060D02*
X170992800Y-57249060D01*
X166364920Y-56509920D02*
X167104060Y-57249060D01*
X134035800Y-51777900D02*
X134035800Y-51625500D01*
X136131300Y-53873400D02*
X134035800Y-51777900D01*
X130408680Y-59740800D02*
X132161280Y-59740800D01*
X130347720Y-59801760D02*
X130408680Y-59740800D01*
X108351320Y-76555600D02*
X114134900Y-70772020D01*
X95862140Y-76555600D02*
X108351320Y-76555600D01*
X94806540Y-75500000D02*
X95862140Y-76555600D01*
X242691920Y-71114920D02*
X244500000Y-72923000D01*
X244500000Y-72923000D02*
X244500000Y-74500000D01*
X71023480Y-50673000D02*
X71023480Y-52040000D01*
X71130160Y-50566320D02*
X71023480Y-50673000D01*
X71481160Y-52040000D02*
X71781276Y-52040000D01*
X71781276Y-52040000D02*
X71023480Y-52040000D01*
X71023480Y-52040000D02*
X58373000Y-52040000D01*
X78773416Y-59032140D02*
X71781276Y-52040000D01*
X84403804Y-59032140D02*
X78773416Y-59032140D01*
X88556704Y-54879240D02*
X84403804Y-59032140D01*
X91119960Y-54879240D02*
X88556704Y-54879240D01*
X92308680Y-53690520D02*
X91119960Y-54879240D01*
X58627000Y-54580000D02*
X60341980Y-52865020D01*
X64066420Y-52865020D02*
X60341980Y-52865020D01*
X64592200Y-53390800D02*
X64066420Y-52865020D01*
X242884960Y-63560960D02*
X241726720Y-63560960D01*
X244043200Y-62402720D02*
X242884960Y-63560960D01*
X244043200Y-59029600D02*
X244043200Y-62402720D01*
X242803680Y-57790080D02*
X244043200Y-59029600D01*
X232846880Y-57790080D02*
X242803680Y-57790080D01*
X230327204Y-60309756D02*
X232846880Y-57790080D01*
X211367222Y-60309756D02*
X230327204Y-60309756D01*
X210229298Y-61447680D02*
X211367222Y-60309756D01*
X198886288Y-61447680D02*
X210229298Y-61447680D01*
X197839804Y-60401196D02*
X198886288Y-61447680D01*
X192591542Y-60401196D02*
X197839804Y-60401196D01*
X189990578Y-63002160D02*
X192591542Y-60401196D01*
X185928000Y-63002160D02*
X189990578Y-63002160D01*
X185455560Y-62529720D02*
X185928000Y-63002160D01*
X131109720Y-62087760D02*
X131810760Y-62087760D01*
X129385056Y-60363096D02*
X131109720Y-62087760D01*
X119942136Y-60363096D02*
X129385056Y-60363096D01*
X118857552Y-61447680D02*
X119942136Y-60363096D01*
X107494548Y-61447680D02*
X118857552Y-61447680D01*
X106417584Y-60370716D02*
X107494548Y-61447680D01*
X103169724Y-60370716D02*
X106417584Y-60370716D01*
X102656642Y-60883798D02*
X103169724Y-60370716D01*
X95343980Y-60883798D02*
X102656642Y-60883798D01*
X95183960Y-61043818D02*
X95343980Y-60883798D01*
X70850760Y-61043818D02*
X95183960Y-61043818D01*
X70416422Y-60609480D02*
X70850760Y-61043818D01*
X68519040Y-60609480D02*
X70416422Y-60609480D01*
X68214240Y-60914280D02*
X68519040Y-60609480D01*
X68214240Y-62194440D02*
X68214240Y-60914280D01*
X68884800Y-62865000D02*
X68214240Y-62194440D01*
X229659186Y-59852554D02*
X230137824Y-59852554D01*
X69532500Y-64640460D02*
X67688460Y-62796420D01*
X67688460Y-62796420D02*
X67688460Y-60571380D01*
X67688460Y-60571380D02*
X68193920Y-60065920D01*
X68193920Y-60065920D02*
X70556120Y-60065920D01*
X70556120Y-60065920D02*
X71076816Y-60586616D01*
X71076816Y-60586616D02*
X85930744Y-60586616D01*
X85930744Y-60586616D02*
X90548460Y-55968900D01*
X90548460Y-55968900D02*
X92933520Y-55968900D01*
X92933520Y-55968900D02*
X93284040Y-56319420D01*
X93284040Y-56319420D02*
X93284040Y-56365140D01*
X93284040Y-56365140D02*
X93398340Y-56479440D01*
X93398340Y-56479440D02*
X93398340Y-56497220D01*
X93398340Y-56497220D02*
X93444060Y-56542940D01*
X93444060Y-56542940D02*
X93444060Y-56558180D01*
X93444060Y-56558180D02*
X93459300Y-56573420D01*
X93459300Y-56573420D02*
X93459300Y-56588660D01*
X93459300Y-56588660D02*
X93477080Y-56606440D01*
X93477080Y-56606440D02*
X93477080Y-56616600D01*
X93477080Y-56616600D02*
X93545660Y-56685180D01*
X93545660Y-56685180D02*
X93571060Y-56710580D01*
X93571060Y-56710580D02*
X93606620Y-56746140D01*
X93606620Y-56746140D02*
X93606620Y-56827420D01*
X93606620Y-56827420D02*
X96692714Y-59913514D01*
X96692714Y-59913514D02*
X106606964Y-59913514D01*
X106606964Y-59913514D02*
X107683928Y-60990478D01*
X107683928Y-60990478D02*
X118668172Y-60990478D01*
X118668172Y-60990478D02*
X119752756Y-59905894D01*
X119752756Y-59905894D02*
X129574436Y-59905894D01*
X129574436Y-59905894D02*
X130557422Y-60888880D01*
X130557422Y-60888880D02*
X131663440Y-60888880D01*
X136916160Y-60761880D02*
X137190480Y-61036200D01*
X137190480Y-61036200D02*
X151917400Y-61036200D01*
X151917400Y-61036200D02*
X153184860Y-59768740D01*
X163758880Y-60573920D02*
X164325300Y-60007500D01*
X164325300Y-60007500D02*
X175679100Y-60007500D01*
X185874660Y-61744860D02*
X186674758Y-62544958D01*
X186674758Y-62544958D02*
X189801198Y-62544958D01*
X189801198Y-62544958D02*
X192402162Y-59943994D01*
X192402162Y-59943994D02*
X198029184Y-59943994D01*
X198029184Y-59943994D02*
X199075668Y-60990478D01*
X199075668Y-60990478D02*
X210039918Y-60990478D01*
X210039918Y-60990478D02*
X211177842Y-59852554D01*
X211177842Y-59852554D02*
X229659186Y-59852554D01*
X240761520Y-63611760D02*
X240761520Y-63520320D01*
X241462560Y-64312800D02*
X240761520Y-63611760D01*
X242779702Y-64312800D02*
X241462560Y-64312800D01*
X244500402Y-62592100D02*
X242779702Y-64312800D01*
X244500402Y-58840220D02*
X244500402Y-62592100D01*
X242993060Y-57332878D02*
X244500402Y-58840220D01*
X232657500Y-57332878D02*
X242993060Y-57332878D01*
X230137824Y-59852554D02*
X232657500Y-57332878D01*
D21*
X58627000Y-59660000D02*
X60188320Y-59660000D01*
X68072000Y-67543680D02*
X69067680Y-67543680D01*
X60188320Y-59660000D02*
X68072000Y-67543680D01*
X58373000Y-62200000D02*
X58435720Y-62200000D01*
X58435720Y-62200000D02*
X65526920Y-69291200D01*
X65526920Y-69291200D02*
X66182240Y-69291200D01*
X95943420Y-66913760D02*
X94861380Y-66913760D01*
X69393848Y-69291200D02*
X66182240Y-69291200D01*
X70871082Y-67813966D02*
X69393848Y-69291200D01*
X70871082Y-65393346D02*
X70871082Y-67813966D01*
X73595004Y-62669424D02*
X70871082Y-65393346D01*
X88324916Y-62669424D02*
X73595004Y-62669424D01*
X91888534Y-66233042D02*
X88324916Y-62669424D01*
X94180662Y-66233042D02*
X91888534Y-66233042D01*
X94861380Y-66913760D02*
X94180662Y-66233042D01*
X95943420Y-67812920D02*
X95943420Y-66913760D01*
X96641920Y-68511420D02*
X95943420Y-67812920D01*
X209580480Y-67078860D02*
X211028280Y-68526660D01*
X198341306Y-67078860D02*
X209580480Y-67078860D01*
X196654744Y-65392298D02*
X198341306Y-67078860D01*
X194972616Y-65392298D02*
X196654744Y-65392298D01*
X192821234Y-67543680D02*
X194972616Y-65392298D01*
X190535560Y-67543680D02*
X192821234Y-67543680D01*
X190484760Y-67594480D02*
X190535560Y-67543680D01*
X95943420Y-66913760D02*
X101541580Y-66913760D01*
X101541580Y-66913760D02*
X103055422Y-65399918D01*
X103055422Y-65399918D02*
X105646544Y-65399918D01*
X105646544Y-65399918D02*
X107150226Y-66903600D01*
X107150226Y-66903600D02*
X118079520Y-66903600D01*
X118079520Y-66903600D02*
X119679720Y-68503800D01*
X66476880Y-69850002D02*
X65295456Y-69850002D01*
X90901520Y-69662040D02*
X89545743Y-68306263D01*
X89545743Y-68306263D02*
X89545743Y-64680517D01*
X89545743Y-64680517D02*
X88093452Y-63228226D01*
X88093452Y-63228226D02*
X73826468Y-63228226D01*
X73826468Y-63228226D02*
X71429884Y-65624810D01*
X71429884Y-65624810D02*
X71429884Y-68045430D01*
X71429884Y-68045430D02*
X69625312Y-69850002D01*
X69625312Y-69850002D02*
X66476880Y-69850002D01*
X101126290Y-68162170D02*
X99402900Y-69885560D01*
X99291140Y-69997320D02*
X99402900Y-69885560D01*
X91241880Y-69997320D02*
X99291140Y-69997320D01*
X90906600Y-69662040D02*
X91241880Y-69997320D01*
X90906600Y-69662040D02*
X90901520Y-69662040D01*
X60185454Y-64740000D02*
X58627000Y-64740000D01*
X65295456Y-69850002D02*
X60185454Y-64740000D01*
X101433630Y-68162170D02*
X101126290Y-68162170D01*
X101795580Y-68524120D02*
X101433630Y-68162170D01*
X213901020Y-69943980D02*
X214228680Y-69616320D01*
X200416160Y-69943980D02*
X213901020Y-69943980D01*
X196423280Y-65951100D02*
X200416160Y-69943980D01*
X195204080Y-65951100D02*
X196423280Y-65951100D01*
X194071240Y-67083940D02*
X195204080Y-65951100D01*
X194071240Y-67391280D02*
X194071240Y-67083940D01*
X193042540Y-68419980D02*
X194071240Y-67391280D01*
X104957880Y-65958720D02*
X105415080Y-65958720D01*
X101126290Y-68162170D02*
X103329740Y-65958720D01*
X103329740Y-65958720D02*
X104957880Y-65958720D01*
X123421140Y-69441060D02*
X124251720Y-68610480D01*
X122946160Y-69916040D02*
X123421140Y-69441060D01*
X109372400Y-69916040D02*
X122946160Y-69916040D01*
X105415080Y-65958720D02*
X109372400Y-69916040D01*
X68511420Y-48051720D02*
X70408800Y-48051720D01*
X98572320Y-58475880D02*
X96377760Y-56281320D01*
X96377760Y-52257960D02*
X96377760Y-56281320D01*
X95592900Y-51473100D02*
X96377760Y-52257960D01*
X91244420Y-51473100D02*
X95592900Y-51473100D01*
X57652920Y-48051720D02*
X68511420Y-48051720D01*
X56944260Y-48760380D02*
X57652920Y-48051720D01*
X56944260Y-65631060D02*
X56944260Y-48760380D01*
X56944260Y-65631060D02*
X58373000Y-67059800D01*
X89194244Y-51473100D02*
X91244420Y-51473100D01*
X84524652Y-56142692D02*
X89194244Y-51473100D01*
X84524652Y-56455508D02*
X84524652Y-56142692D01*
X82588100Y-58392060D02*
X84524652Y-56455508D01*
X80749140Y-58392060D02*
X82588100Y-58392060D01*
X70408800Y-48051720D02*
X80749140Y-58392060D01*
X58373000Y-67280000D02*
X58373000Y-67059800D01*
X102684580Y-57048400D02*
X99999800Y-57048400D01*
X122895360Y-56570880D02*
X120477280Y-56570880D01*
X119197120Y-55290720D02*
X120477280Y-56570880D01*
X119197120Y-52852320D02*
X119197120Y-55290720D01*
X118099840Y-51755040D02*
X119197120Y-52852320D01*
X116697760Y-51755040D02*
X118099840Y-51755040D01*
X111404400Y-57048400D02*
X116697760Y-51755040D01*
X102684580Y-57048400D02*
X111404400Y-57048400D01*
X99999800Y-57048400D02*
X98572320Y-58475880D01*
X122895360Y-57277000D02*
X122895360Y-56570880D01*
X122941080Y-57322720D02*
X122895360Y-57277000D01*
X191442340Y-57449720D02*
X191442340Y-56769000D01*
X191521080Y-57528460D02*
X191442340Y-57449720D01*
X210644740Y-56192420D02*
X212872320Y-58420000D01*
X210644740Y-52900580D02*
X210644740Y-56192420D01*
X209453480Y-51709320D02*
X210644740Y-52900580D01*
X207375760Y-51709320D02*
X209453480Y-51709320D01*
X202316080Y-56769000D02*
X207375760Y-51709320D01*
X188899800Y-56769000D02*
X191442340Y-56769000D01*
X191442340Y-56769000D02*
X202316080Y-56769000D01*
X187452000Y-55321200D02*
X188899800Y-56769000D01*
X187452000Y-52623720D02*
X187452000Y-55321200D01*
X186583320Y-51755040D02*
X187452000Y-52623720D01*
X185318400Y-51755040D02*
X186583320Y-51755040D01*
X182311040Y-54762400D02*
X185318400Y-51755040D01*
X122895360Y-56570880D02*
X131536440Y-56570880D01*
X60816002Y-72009002D02*
X58627000Y-69820000D01*
X78524102Y-72009002D02*
X60816002Y-72009002D01*
X79438500Y-72923400D02*
X78524102Y-72009002D01*
D18*
X75057000Y-64516000D02*
X74168000Y-65405000D01*
X74168000Y-65405000D02*
X74168000Y-69596000D01*
X74168000Y-69596000D02*
X76073000Y-71501000D01*
X76073000Y-71501000D02*
X79756000Y-71501000D01*
X79756000Y-71501000D02*
X82804000Y-68453000D01*
X82804000Y-68453000D02*
X85598000Y-68453000D01*
X75311000Y-64516000D02*
X75057000Y-64516000D01*
X75692000Y-65278000D02*
X74676000Y-66294000D01*
X74676000Y-66294000D02*
X74676000Y-69342000D01*
X74676000Y-69342000D02*
X76327000Y-70993000D01*
X76327000Y-70993000D02*
X79375000Y-70993000D01*
X79375000Y-70993000D02*
X82677000Y-67691000D01*
X82677000Y-67691000D02*
X85979000Y-67691000D01*
X75692000Y-65151000D02*
X75692000Y-65278000D01*
X75946000Y-65786000D02*
X75184000Y-66548000D01*
X75184000Y-66548000D02*
X75184000Y-69088000D01*
X75184000Y-69088000D02*
X76581000Y-70485000D01*
X76581000Y-70485000D02*
X79121000Y-70485000D01*
X79121000Y-70485000D02*
X82677000Y-66929000D01*
X82677000Y-66929000D02*
X86360000Y-66929000D01*
X76073000Y-65786000D02*
X75946000Y-65786000D01*
X92560000Y-63500000D02*
X92560000Y-63572426D01*
X75819000Y-67056000D02*
X75819000Y-68961000D01*
X75819000Y-68961000D02*
X76835000Y-69977000D01*
X76835000Y-69977000D02*
X78867000Y-69977000D01*
X78867000Y-69977000D02*
X82677000Y-66167000D01*
X82677000Y-66167000D02*
X86741000Y-66167000D01*
X76454000Y-66421000D02*
X75819000Y-67056000D01*
X76708000Y-67056000D02*
X76454000Y-67310000D01*
X76454000Y-67310000D02*
X76454000Y-68834000D01*
X76454000Y-68834000D02*
X77038202Y-69418202D01*
X77038202Y-69418202D02*
X78663798Y-69418202D01*
X78663798Y-69418202D02*
X82550000Y-65532000D01*
X82550000Y-65532000D02*
X87122000Y-65532000D01*
X76835000Y-67056000D02*
X76708000Y-67056000D01*
X77216000Y-67691000D02*
X77216000Y-67818000D01*
X82434582Y-64897000D02*
X87503000Y-64897000D01*
X78370582Y-68961000D02*
X82434582Y-64897000D01*
X77343000Y-68961000D02*
X78370582Y-68961000D01*
X76962000Y-68580000D02*
X77343000Y-68961000D01*
X76962000Y-68072000D02*
X76962000Y-68580000D01*
X77216000Y-67818000D02*
X76962000Y-68072000D01*
X78359000Y-68326000D02*
X82423000Y-64262000D01*
X82423000Y-64262000D02*
X87884000Y-64262000D01*
X77597000Y-68326000D02*
X78359000Y-68326000D01*
X89154000Y-50794920D02*
X87241380Y-52707540D01*
X89154000Y-50794920D02*
X127185420Y-50794920D01*
X127185420Y-50794920D02*
X133134100Y-56743600D01*
X133134100Y-56743600D02*
X133134100Y-65267840D01*
X133134100Y-65267840D02*
X130403600Y-67998340D01*
X127466980Y-67998340D02*
X130403600Y-67998340D01*
X83268820Y-56692800D02*
X82202020Y-57759600D01*
X83268820Y-56680100D02*
X83268820Y-56692800D01*
X87241380Y-52707540D02*
X83268820Y-56680100D01*
X150780000Y-68500000D02*
X151687520Y-68500000D01*
X151687520Y-68500000D02*
X154244042Y-65943478D01*
X154244042Y-65943478D02*
X154244042Y-53586078D01*
X154244042Y-53586078D02*
X146758954Y-46100990D01*
X146758954Y-46100990D02*
X87382110Y-46100990D01*
X87382110Y-46100990D02*
X82983100Y-50500000D01*
X82983100Y-50500000D02*
X79750000Y-50500000D01*
X88995098Y-50307240D02*
X127451002Y-50307240D01*
X127451002Y-50307240D02*
X133591302Y-56447540D01*
X133591302Y-56447540D02*
X133591302Y-70078602D01*
X133591302Y-70078602D02*
X136012700Y-72500000D01*
X140280000Y-72500000D02*
X136012700Y-72500000D01*
X82292038Y-57010300D02*
X88995098Y-50307240D01*
X81572100Y-57010300D02*
X82292038Y-57010300D01*
X81473040Y-57109360D02*
X81572100Y-57010300D01*
X138780000Y-68500000D02*
X135964944Y-68500000D01*
X82155756Y-56500000D02*
X79750000Y-56500000D01*
X88831116Y-49824640D02*
X82155756Y-56500000D01*
X127675944Y-49824640D02*
X88831116Y-49824640D01*
X134048504Y-56197200D02*
X127675944Y-49824640D01*
X134048504Y-66583560D02*
X134048504Y-56197200D01*
X135964944Y-68500000D02*
X134048504Y-66583560D01*
X82259174Y-55750000D02*
X88677294Y-49331880D01*
X88677294Y-49331880D02*
X127860246Y-49331880D01*
X127860246Y-49331880D02*
X134505706Y-55977340D01*
X134505706Y-55977340D02*
X134505706Y-59725706D01*
X134505706Y-59725706D02*
X138280000Y-63500000D01*
X79750000Y-55750000D02*
X82259174Y-55750000D01*
X137705428Y-58500000D02*
X128064868Y-48859440D01*
X128064868Y-48859440D02*
X88503152Y-48859440D01*
X88503152Y-48859440D02*
X82362592Y-55000000D01*
X82362592Y-55000000D02*
X79750000Y-55000000D01*
X138780000Y-58500000D02*
X137705428Y-58500000D01*
X82466010Y-54250000D02*
X88329010Y-48387000D01*
X88329010Y-48387000D02*
X134167000Y-48387000D01*
X140280000Y-54500000D02*
X134167000Y-48387000D01*
X79750000Y-54250000D02*
X82466010Y-54250000D01*
X82569428Y-53500000D02*
X79750000Y-53500000D01*
X88139630Y-47929798D02*
X82569428Y-53500000D01*
X139385038Y-47929798D02*
X88139630Y-47929798D01*
X139385038Y-47929798D02*
X144780000Y-53324760D01*
X144780000Y-53500000D02*
X144780000Y-53324760D01*
X82672846Y-52750000D02*
X87950250Y-47472596D01*
X87950250Y-47472596D02*
X143443956Y-47472596D01*
X143443956Y-47472596D02*
X149280000Y-53308640D01*
X149280000Y-54500000D02*
X149280000Y-53308640D01*
X79750000Y-52750000D02*
X82672846Y-52750000D01*
X150780000Y-57378080D02*
X152257760Y-55900320D01*
X152257760Y-55900320D02*
X152257760Y-52892960D01*
X152257760Y-52892960D02*
X146380194Y-47015394D01*
X146380194Y-47015394D02*
X87760870Y-47015394D01*
X87760870Y-47015394D02*
X82776264Y-52000000D01*
X82776264Y-52000000D02*
X79750000Y-52000000D01*
X150780000Y-57378080D02*
X150780000Y-58500000D01*
X82879682Y-51250000D02*
X87571490Y-46558192D01*
X87571490Y-46558192D02*
X146569574Y-46558192D01*
X146569574Y-46558192D02*
X153786840Y-53775458D01*
X153786840Y-53775458D02*
X153786840Y-60993160D01*
X151280000Y-63500000D02*
X153786840Y-60993160D01*
X79750000Y-51250000D02*
X82879682Y-51250000D01*
X229389934Y-49484274D02*
X230659934Y-49484274D01*
X229389934Y-49484274D02*
X183824886Y-49484274D01*
X183824886Y-49484274D02*
X179958994Y-53350166D01*
X179958994Y-53350166D02*
X179958994Y-66548006D01*
X179958994Y-66548006D02*
X178007000Y-68500000D01*
X173640000Y-68500000D02*
X178007000Y-68500000D01*
X235204000Y-55372000D02*
X235204000Y-54028340D01*
X230659934Y-49484274D02*
X235204000Y-54028340D01*
X83086518Y-49750000D02*
X87192730Y-45643788D01*
X87192730Y-45643788D02*
X146948334Y-45643788D01*
X146948334Y-45643788D02*
X154701244Y-53396698D01*
X154701244Y-53396698D02*
X154701244Y-69499484D01*
X154701244Y-69499484D02*
X157701760Y-72500000D01*
X163140000Y-72500000D02*
X157701760Y-72500000D01*
X79750000Y-49750000D02*
X83086518Y-49750000D01*
X83189936Y-49000000D02*
X79750000Y-49000000D01*
X87003350Y-45186586D02*
X83189936Y-49000000D01*
X147137714Y-45186586D02*
X87003350Y-45186586D01*
X155158446Y-53207318D02*
X147137714Y-45186586D01*
X155158446Y-64307726D02*
X155158446Y-53207318D01*
X155158446Y-64307726D02*
X159350720Y-68500000D01*
X161640000Y-68500000D02*
X159350720Y-68500000D01*
X233151680Y-46268640D02*
X234421680Y-46268640D01*
X240538000Y-52384960D02*
X240538000Y-55372000D01*
X181676040Y-46268640D02*
X233151680Y-46268640D01*
X178064164Y-49880516D02*
X181676040Y-46268640D01*
X163074202Y-49880516D02*
X178064164Y-49880516D01*
X158531560Y-54423158D02*
X163074202Y-49880516D01*
X158531560Y-59931300D02*
X158531560Y-54423158D01*
X158531560Y-59931300D02*
X161140000Y-62539740D01*
X234421680Y-46268640D02*
X240538000Y-52384960D01*
X161140000Y-63500000D02*
X161140000Y-62539740D01*
X232763042Y-46741062D02*
X234033042Y-46741062D01*
X232763042Y-46741062D02*
X181942758Y-46741062D01*
X181942758Y-46741062D02*
X178346102Y-50337718D01*
X178346102Y-50337718D02*
X163263582Y-50337718D01*
X163263582Y-50337718D02*
X160682940Y-52918360D01*
X160682940Y-57542940D02*
X160682940Y-52918360D01*
X239776000Y-55372000D02*
X239776000Y-52484020D01*
X234033042Y-46741062D02*
X239776000Y-52484020D01*
X160682940Y-57542940D02*
X161640000Y-58500000D01*
X232181384Y-47198264D02*
X233451384Y-47198264D01*
X232181384Y-47198264D02*
X231768786Y-47198264D01*
X163140000Y-53618520D02*
X165963600Y-50794920D01*
X165963600Y-50794920D02*
X178734720Y-50794920D01*
X178734720Y-50794920D02*
X182331376Y-47198264D01*
X182331376Y-47198264D02*
X231768786Y-47198264D01*
X239014000Y-53173478D02*
X239014000Y-55372000D01*
X239014000Y-53173478D02*
X239014000Y-52760880D01*
X233451384Y-47198264D02*
X239014000Y-52760880D01*
X163140000Y-54500000D02*
X163140000Y-53618520D01*
X231579406Y-47655466D02*
X232849406Y-47655466D01*
X231579406Y-47655466D02*
X182529494Y-47655466D01*
X182529494Y-47655466D02*
X178490880Y-51694080D01*
X178490880Y-51694080D02*
X169445920Y-51694080D01*
X167640000Y-53500000D02*
X169445920Y-51694080D01*
X238252000Y-55372000D02*
X238252000Y-53058060D01*
X232849406Y-47655466D02*
X238252000Y-53058060D01*
X232166148Y-48112668D02*
X232303308Y-48112668D01*
X172140000Y-54500000D02*
X176492680Y-54500000D01*
X182880012Y-48112668D02*
X231038388Y-48112668D01*
X176492680Y-54500000D02*
X182880012Y-48112668D01*
X231038388Y-48112668D02*
X232166148Y-48112668D01*
X232303308Y-48112668D02*
X237490000Y-53299360D01*
X237490000Y-53294280D02*
X237490000Y-53299360D01*
X237490000Y-53299360D02*
X237490000Y-53436520D01*
X237490000Y-53436520D02*
X237490000Y-55372000D01*
X230581190Y-48569870D02*
X231851190Y-48569870D01*
X230581190Y-48569870D02*
X183222910Y-48569870D01*
X183222910Y-48569870D02*
X179044590Y-52748190D01*
X179044590Y-52748190D02*
X179044590Y-56057810D01*
X179044590Y-56057810D02*
X176602400Y-58500000D01*
X173640000Y-58500000D02*
X176602400Y-58500000D01*
X236728000Y-55372000D02*
X236728000Y-53446680D01*
X231851190Y-48569870D02*
X236728000Y-53446680D01*
X229941112Y-49027072D02*
X231211112Y-49027072D01*
X235966000Y-53781960D02*
X235966000Y-54143758D01*
X235966000Y-54143758D02*
X235966000Y-55372000D01*
X229941112Y-49027072D02*
X229544880Y-49027072D01*
X231211112Y-49027072D02*
X235966000Y-53781960D01*
X174140000Y-63500000D02*
X176616352Y-63500000D01*
X183575968Y-49027072D02*
X229544880Y-49027072D01*
X229544880Y-49027072D02*
X229579314Y-49027072D01*
X179501792Y-53101248D02*
X183575968Y-49027072D01*
X179501792Y-60614560D02*
X179501792Y-53101248D01*
X176616352Y-63500000D02*
X179501792Y-60614560D01*
X228899716Y-49941476D02*
X230169716Y-49941476D01*
X228899716Y-49941476D02*
X184134764Y-49941476D01*
X184134764Y-49941476D02*
X180416196Y-53660044D01*
X180416196Y-53660044D02*
X180416196Y-70891396D01*
X180416196Y-70891396D02*
X182024800Y-72500000D01*
X186000000Y-72500000D02*
X182024800Y-72500000D01*
X234442000Y-55372000D02*
X234442000Y-54213760D01*
X230169716Y-49941476D02*
X234442000Y-54213760D01*
X228401878Y-50398678D02*
X229671878Y-50398678D01*
X233680000Y-54406800D02*
X233680000Y-55372000D01*
X184614822Y-50398678D02*
X228401878Y-50398678D01*
X180873398Y-54140102D02*
X184614822Y-50398678D01*
X180873398Y-65638678D02*
X180873398Y-54140102D01*
X180873398Y-65638678D02*
X183734720Y-68500000D01*
X229671878Y-50398678D02*
X233680000Y-54406800D01*
X184500000Y-68500000D02*
X183734720Y-68500000D01*
X227792280Y-50855880D02*
X229062280Y-50855880D01*
X227792280Y-50855880D02*
X184912000Y-50855880D01*
X184912000Y-50855880D02*
X181330600Y-54437280D01*
X181330600Y-54437280D02*
X181330600Y-60830600D01*
X184000000Y-63500000D02*
X181330600Y-60830600D01*
X232918000Y-55372000D02*
X232918000Y-54711600D01*
X229062280Y-50855880D02*
X232918000Y-54711600D01*
X69027040Y-61493400D02*
X69034660Y-61501020D01*
X69034660Y-61501020D02*
X95918020Y-61501020D01*
X95918020Y-61501020D02*
X96078040Y-61341000D01*
X96078040Y-61341000D02*
X102846814Y-61341000D01*
X102846814Y-61341000D02*
X103359896Y-60827918D01*
X103359896Y-60827918D02*
X106228204Y-60827918D01*
X106228204Y-60827918D02*
X111135482Y-65735196D01*
X111135482Y-65735196D02*
X117299418Y-65735196D01*
X117299418Y-65735196D02*
X119194578Y-63840036D01*
X119194578Y-63840036D02*
X119194578Y-61757236D01*
X119194578Y-61757236D02*
X120131516Y-60820298D01*
X120131516Y-60820298D02*
X129169484Y-60820298D01*
X129169484Y-60820298D02*
X131427546Y-63078360D01*
X131427546Y-63078360D02*
X132349240Y-63078360D01*
X132349240Y-63078360D02*
X132389880Y-63037720D01*
X182758080Y-65430400D02*
X183164480Y-65836800D01*
X183164480Y-65836800D02*
X187802520Y-65836800D01*
X187802520Y-65836800D02*
X192780922Y-60858398D01*
X192780922Y-60858398D02*
X197650424Y-60858398D01*
X197650424Y-60858398D02*
X202702482Y-65910456D01*
X202702482Y-65910456D02*
X208335558Y-65910456D01*
X208335558Y-65910456D02*
X210281520Y-63964494D01*
X210281520Y-63964494D02*
X210281520Y-62042040D01*
X210281520Y-62042040D02*
X211556602Y-60766958D01*
X211556602Y-60766958D02*
X231007922Y-60766958D01*
X231007922Y-60766958D02*
X233184700Y-58590180D01*
X213222840Y-70515480D02*
X211340700Y-72397620D01*
X239001300Y-71724520D02*
X235772962Y-74952858D01*
X235772962Y-74952858D02*
X229353260Y-74952858D01*
X229353260Y-74952858D02*
X219927320Y-65526918D01*
X219927320Y-65526918D02*
X217930580Y-65526918D01*
X217930580Y-65526918D02*
X215082120Y-68375378D01*
X215082120Y-68375378D02*
X215082120Y-69837298D01*
X215082120Y-69837298D02*
X214403938Y-70515480D01*
X214403938Y-70515480D02*
X213222840Y-70515480D01*
X124053580Y-75633580D02*
X121920000Y-73500000D01*
X139844780Y-75633580D02*
X124053580Y-75633580D01*
X144825720Y-70652640D02*
X139844780Y-75633580D01*
X146090640Y-70652640D02*
X144825720Y-70652640D01*
X147416520Y-71978520D02*
X146090640Y-70652640D01*
X147416520Y-74609960D02*
X147416520Y-71978520D01*
X148884638Y-76078078D02*
X147416520Y-74609960D01*
X161985962Y-76078078D02*
X148884638Y-76078078D01*
X167518082Y-70545958D02*
X161985962Y-76078078D01*
X169094300Y-70545958D02*
X167518082Y-70545958D01*
X170124122Y-71575780D02*
X169094300Y-70545958D01*
X170124122Y-74152762D02*
X170124122Y-71575780D01*
X171526198Y-75554838D02*
X170124122Y-74152762D01*
X185377940Y-75554838D02*
X171526198Y-75554838D01*
X190419838Y-70512940D02*
X185377940Y-75554838D01*
X191951762Y-70512940D02*
X190419838Y-70512940D01*
X193019682Y-71580860D02*
X191951762Y-70512940D01*
X193019682Y-74193402D02*
X193019682Y-71580860D01*
X194081394Y-75255114D02*
X193019682Y-74193402D01*
X208467960Y-75255114D02*
X194081394Y-75255114D01*
X211325454Y-72397620D02*
X208467960Y-75255114D01*
X211340700Y-72397620D02*
X211325454Y-72397620D01*
X144780000Y-73500000D02*
X145659978Y-73500000D01*
X145659978Y-73500000D02*
X148695258Y-76535280D01*
X148695258Y-76535280D02*
X162175342Y-76535280D01*
X162175342Y-76535280D02*
X167707462Y-71003160D01*
X167707462Y-71003160D02*
X168904920Y-71003160D01*
X168904920Y-71003160D02*
X169666920Y-71765160D01*
X169666920Y-71765160D02*
X169666920Y-74342142D01*
X169666920Y-74342142D02*
X171336818Y-76012040D01*
X171336818Y-76012040D02*
X185567320Y-76012040D01*
X185567320Y-76012040D02*
X190609218Y-70970142D01*
X190609218Y-70970142D02*
X191762382Y-70970142D01*
X191762382Y-70970142D02*
X192562480Y-71770240D01*
X192562480Y-71770240D02*
X192562480Y-74382782D01*
X192562480Y-74382782D02*
X193892014Y-75712316D01*
X193892014Y-75712316D02*
X208657340Y-75712316D01*
X208657340Y-75712316D02*
X210792768Y-73576888D01*
X210792768Y-73576888D02*
X210808014Y-73576888D01*
X210808014Y-73576888D02*
X213412220Y-70972682D01*
X213412220Y-70972682D02*
X214619838Y-70972682D01*
X214619838Y-70972682D02*
X215539322Y-70053198D01*
X215539322Y-70053198D02*
X215539322Y-68564758D01*
X215539322Y-68564758D02*
X218119960Y-65984120D01*
X218119960Y-65984120D02*
X219737940Y-65984120D01*
X219737940Y-65984120D02*
X229163880Y-75410060D01*
X229163880Y-75410060D02*
X236481620Y-75410060D01*
X236481620Y-75410060D02*
X239471200Y-72420480D01*
X170766720Y-76626720D02*
X167640000Y-73500000D01*
X213314280Y-76626720D02*
X170766720Y-76626720D01*
X213616536Y-76324464D02*
X213314280Y-76626720D01*
X238025936Y-76324464D02*
X213616536Y-76324464D01*
X241927380Y-72423020D02*
X238025936Y-76324464D01*
X241927380Y-71460360D02*
X241927380Y-72423020D01*
X241515900Y-71048880D02*
X241927380Y-71460360D01*
X240979960Y-71048880D02*
X241515900Y-71048880D01*
X240418620Y-71610220D02*
X240979960Y-71048880D01*
X213291418Y-75867262D02*
X213240616Y-75867262D01*
X241241580Y-71734680D02*
X237108998Y-75867262D01*
X237108998Y-75867262D02*
X213291418Y-75867262D01*
X190500000Y-73500000D02*
X193078080Y-76078080D01*
X193169518Y-76169518D02*
X193078080Y-76078080D01*
X212938360Y-76169518D02*
X193169518Y-76169518D01*
X213240616Y-75867262D02*
X212938360Y-76169518D01*
X213360000Y-73500000D02*
X213479400Y-73500000D01*
X213479400Y-73500000D02*
X215341200Y-75361800D01*
X215341200Y-75361800D02*
X219354400Y-75361800D01*
X219354400Y-75361800D02*
X222300800Y-72415400D01*
D22*
G36*
X102939809Y-68097721D02*
X103745630Y-69493444D01*
X103560000Y-69456520D01*
X102934313Y-69580977D01*
X102403880Y-69935400D01*
X102049457Y-70465833D01*
X101925000Y-71091520D01*
X101925000Y-73908480D01*
X102049457Y-74534167D01*
X102403880Y-75064600D01*
X102934313Y-75419023D01*
X103560000Y-75543480D01*
X104185687Y-75419023D01*
X104716120Y-75064600D01*
X105070543Y-74534167D01*
X105195000Y-73908480D01*
X105195000Y-71227034D01*
X105341071Y-71299068D01*
X105977651Y-71340791D01*
X106581740Y-71135730D01*
X107061372Y-70715104D01*
X107343529Y-70142948D01*
X107385252Y-69506368D01*
X107183761Y-68912795D01*
X108779703Y-70508737D01*
X109051635Y-70690436D01*
X109372400Y-70754240D01*
X117173746Y-70754240D01*
X115382721Y-71788289D01*
X114903089Y-72208915D01*
X114620932Y-72781071D01*
X114579209Y-73417651D01*
X114784270Y-74021740D01*
X115204896Y-74501372D01*
X115777052Y-74783529D01*
X116413632Y-74825252D01*
X117017721Y-74620191D01*
X119457279Y-73211712D01*
X119936911Y-72791085D01*
X120219068Y-72218929D01*
X120260791Y-71582349D01*
X120055730Y-70978260D01*
X119859270Y-70754240D01*
X122092973Y-70754240D01*
X121628915Y-70983089D01*
X121208288Y-71462721D01*
X119799809Y-73902279D01*
X119594748Y-74506368D01*
X119636471Y-75142948D01*
X119918628Y-75715104D01*
X120398260Y-76135730D01*
X120926371Y-76315000D01*
X98535850Y-76315000D01*
X98778929Y-76299068D01*
X99351085Y-76016911D01*
X99771711Y-75537279D01*
X101180191Y-73097721D01*
X101385252Y-72493632D01*
X101343529Y-71857052D01*
X101061372Y-71284896D01*
X100581740Y-70864270D01*
X99977651Y-70659209D01*
X99758819Y-70673552D01*
X99883837Y-70590017D01*
X101243971Y-69229883D01*
X101291344Y-69277338D01*
X101617971Y-69412966D01*
X101971637Y-69413274D01*
X102298500Y-69278217D01*
X102548798Y-69028356D01*
X102684426Y-68701729D01*
X102684734Y-68348063D01*
X102549677Y-68021200D01*
X102501208Y-67972646D01*
X102796958Y-67676896D01*
X102939809Y-68097721D01*
X102939809Y-68097721D01*
G37*
X102939809Y-68097721D02*
X103745630Y-69493444D01*
X103560000Y-69456520D01*
X102934313Y-69580977D01*
X102403880Y-69935400D01*
X102049457Y-70465833D01*
X101925000Y-71091520D01*
X101925000Y-73908480D01*
X102049457Y-74534167D01*
X102403880Y-75064600D01*
X102934313Y-75419023D01*
X103560000Y-75543480D01*
X104185687Y-75419023D01*
X104716120Y-75064600D01*
X105070543Y-74534167D01*
X105195000Y-73908480D01*
X105195000Y-71227034D01*
X105341071Y-71299068D01*
X105977651Y-71340791D01*
X106581740Y-71135730D01*
X107061372Y-70715104D01*
X107343529Y-70142948D01*
X107385252Y-69506368D01*
X107183761Y-68912795D01*
X108779703Y-70508737D01*
X109051635Y-70690436D01*
X109372400Y-70754240D01*
X117173746Y-70754240D01*
X115382721Y-71788289D01*
X114903089Y-72208915D01*
X114620932Y-72781071D01*
X114579209Y-73417651D01*
X114784270Y-74021740D01*
X115204896Y-74501372D01*
X115777052Y-74783529D01*
X116413632Y-74825252D01*
X117017721Y-74620191D01*
X119457279Y-73211712D01*
X119936911Y-72791085D01*
X120219068Y-72218929D01*
X120260791Y-71582349D01*
X120055730Y-70978260D01*
X119859270Y-70754240D01*
X122092973Y-70754240D01*
X121628915Y-70983089D01*
X121208288Y-71462721D01*
X119799809Y-73902279D01*
X119594748Y-74506368D01*
X119636471Y-75142948D01*
X119918628Y-75715104D01*
X120398260Y-76135730D01*
X120926371Y-76315000D01*
X98535850Y-76315000D01*
X98778929Y-76299068D01*
X99351085Y-76016911D01*
X99771711Y-75537279D01*
X101180191Y-73097721D01*
X101385252Y-72493632D01*
X101343529Y-71857052D01*
X101061372Y-71284896D01*
X100581740Y-70864270D01*
X99977651Y-70659209D01*
X99758819Y-70673552D01*
X99883837Y-70590017D01*
X101243971Y-69229883D01*
X101291344Y-69277338D01*
X101617971Y-69412966D01*
X101971637Y-69413274D01*
X102298500Y-69278217D01*
X102548798Y-69028356D01*
X102684426Y-68701729D01*
X102684734Y-68348063D01*
X102549677Y-68021200D01*
X102501208Y-67972646D01*
X102796958Y-67676896D01*
X102939809Y-68097721D01*
G36*
X88707543Y-65027711D02*
X88707543Y-68306263D01*
X88771347Y-68627029D01*
X88953046Y-68898960D01*
X90308823Y-70254737D01*
X90324133Y-70264967D01*
X90649183Y-70590017D01*
X90921115Y-70771716D01*
X91241880Y-70835520D01*
X94172965Y-70835520D01*
X92522721Y-71788289D01*
X92043089Y-72208915D01*
X91760932Y-72781071D01*
X91719209Y-73417651D01*
X91924270Y-74021740D01*
X92344896Y-74501372D01*
X92917052Y-74783529D01*
X93553632Y-74825252D01*
X94157721Y-74620191D01*
X96597279Y-73211712D01*
X97076911Y-72791085D01*
X97359068Y-72218929D01*
X97400791Y-71582349D01*
X97195730Y-70978260D01*
X97070550Y-70835520D01*
X99068154Y-70835520D01*
X98768915Y-70983089D01*
X98348288Y-71462721D01*
X96939809Y-73902279D01*
X96734748Y-74506368D01*
X96776471Y-75142948D01*
X97058628Y-75715104D01*
X97538260Y-76135730D01*
X98066371Y-76315000D01*
X77994608Y-76315000D01*
X77898123Y-76218515D01*
X78272168Y-75993846D01*
X78670880Y-75010612D01*
X78662975Y-73949643D01*
X78272168Y-73006154D01*
X78007533Y-72847202D01*
X78176908Y-72847202D01*
X78633971Y-73304265D01*
X78684403Y-73426320D01*
X78934264Y-73676618D01*
X79260891Y-73812246D01*
X79614557Y-73812554D01*
X79941420Y-73677497D01*
X80191718Y-73427636D01*
X80327346Y-73101009D01*
X80327654Y-72747343D01*
X80192597Y-72420480D01*
X80010261Y-72237825D01*
X80057325Y-72228463D01*
X80312776Y-72057776D01*
X83130152Y-69240400D01*
X85176083Y-69240400D01*
X85420391Y-69341846D01*
X85774057Y-69342154D01*
X86100920Y-69207097D01*
X86351218Y-68957236D01*
X86486846Y-68630609D01*
X86487012Y-68440014D01*
X86732218Y-68195236D01*
X86867846Y-67868609D01*
X86868012Y-67678014D01*
X87113218Y-67433236D01*
X87248846Y-67106609D01*
X87249012Y-66916014D01*
X87494218Y-66671236D01*
X87629846Y-66344609D01*
X87629901Y-66281124D01*
X87875218Y-66036236D01*
X88010846Y-65709609D01*
X88010901Y-65646124D01*
X88256218Y-65401236D01*
X88391846Y-65074609D01*
X88391901Y-65011124D01*
X88541559Y-64861727D01*
X88707543Y-65027711D01*
X88707543Y-65027711D01*
G37*
X88707543Y-65027711D02*
X88707543Y-68306263D01*
X88771347Y-68627029D01*
X88953046Y-68898960D01*
X90308823Y-70254737D01*
X90324133Y-70264967D01*
X90649183Y-70590017D01*
X90921115Y-70771716D01*
X91241880Y-70835520D01*
X94172965Y-70835520D01*
X92522721Y-71788289D01*
X92043089Y-72208915D01*
X91760932Y-72781071D01*
X91719209Y-73417651D01*
X91924270Y-74021740D01*
X92344896Y-74501372D01*
X92917052Y-74783529D01*
X93553632Y-74825252D01*
X94157721Y-74620191D01*
X96597279Y-73211712D01*
X97076911Y-72791085D01*
X97359068Y-72218929D01*
X97400791Y-71582349D01*
X97195730Y-70978260D01*
X97070550Y-70835520D01*
X99068154Y-70835520D01*
X98768915Y-70983089D01*
X98348288Y-71462721D01*
X96939809Y-73902279D01*
X96734748Y-74506368D01*
X96776471Y-75142948D01*
X97058628Y-75715104D01*
X97538260Y-76135730D01*
X98066371Y-76315000D01*
X77994608Y-76315000D01*
X77898123Y-76218515D01*
X78272168Y-75993846D01*
X78670880Y-75010612D01*
X78662975Y-73949643D01*
X78272168Y-73006154D01*
X78007533Y-72847202D01*
X78176908Y-72847202D01*
X78633971Y-73304265D01*
X78684403Y-73426320D01*
X78934264Y-73676618D01*
X79260891Y-73812246D01*
X79614557Y-73812554D01*
X79941420Y-73677497D01*
X80191718Y-73427636D01*
X80327346Y-73101009D01*
X80327654Y-72747343D01*
X80192597Y-72420480D01*
X80010261Y-72237825D01*
X80057325Y-72228463D01*
X80312776Y-72057776D01*
X83130152Y-69240400D01*
X85176083Y-69240400D01*
X85420391Y-69341846D01*
X85774057Y-69342154D01*
X86100920Y-69207097D01*
X86351218Y-68957236D01*
X86486846Y-68630609D01*
X86487012Y-68440014D01*
X86732218Y-68195236D01*
X86867846Y-67868609D01*
X86868012Y-67678014D01*
X87113218Y-67433236D01*
X87248846Y-67106609D01*
X87249012Y-66916014D01*
X87494218Y-66671236D01*
X87629846Y-66344609D01*
X87629901Y-66281124D01*
X87875218Y-66036236D01*
X88010846Y-65709609D01*
X88010901Y-65646124D01*
X88256218Y-65401236D01*
X88391846Y-65074609D01*
X88391901Y-65011124D01*
X88541559Y-64861727D01*
X88707543Y-65027711D01*
G36*
X244693748Y-74485858D02*
X244679605Y-74500000D01*
X244693748Y-74514143D01*
X244514143Y-74693748D01*
X244500000Y-74679605D01*
X244485858Y-74693748D01*
X244306253Y-74514143D01*
X244320395Y-74500000D01*
X244306253Y-74485858D01*
X244485858Y-74306253D01*
X244500000Y-74320395D01*
X244514143Y-74306253D01*
X244693748Y-74485858D01*
X244693748Y-74485858D01*
G37*
X244693748Y-74485858D02*
X244679605Y-74500000D01*
X244693748Y-74514143D01*
X244514143Y-74693748D01*
X244500000Y-74679605D01*
X244485858Y-74693748D01*
X244306253Y-74514143D01*
X244320395Y-74500000D01*
X244306253Y-74485858D01*
X244485858Y-74306253D01*
X244500000Y-74320395D01*
X244514143Y-74306253D01*
X244693748Y-74485858D01*
G36*
X76193748Y-74485858D02*
X76179605Y-74500000D01*
X76193748Y-74514143D01*
X76014143Y-74693748D01*
X76000000Y-74679605D01*
X75985858Y-74693748D01*
X75806253Y-74514143D01*
X75820395Y-74500000D01*
X75806253Y-74485858D01*
X75985858Y-74306253D01*
X76000000Y-74320395D01*
X76014143Y-74306253D01*
X76193748Y-74485858D01*
X76193748Y-74485858D01*
G37*
X76193748Y-74485858D02*
X76179605Y-74500000D01*
X76193748Y-74514143D01*
X76014143Y-74693748D01*
X76000000Y-74679605D01*
X75985858Y-74693748D01*
X75806253Y-74514143D01*
X75820395Y-74500000D01*
X75806253Y-74485858D01*
X75985858Y-74306253D01*
X76000000Y-74320395D01*
X76014143Y-74306253D01*
X76193748Y-74485858D01*
G36*
X242601877Y-45781485D02*
X242227832Y-46006154D01*
X241829120Y-46989388D01*
X241837025Y-48050357D01*
X242227832Y-48993846D01*
X242601879Y-49218516D01*
X244320395Y-47500000D01*
X244306253Y-47485858D01*
X244485858Y-47306253D01*
X244500000Y-47320395D01*
X244514143Y-47306253D01*
X244693748Y-47485858D01*
X244679605Y-47500000D01*
X244693748Y-47514143D01*
X244514143Y-47693748D01*
X244500000Y-47679605D01*
X242781484Y-49398121D01*
X243006154Y-49772168D01*
X243989388Y-50170880D01*
X245050357Y-50162975D01*
X245993846Y-49772168D01*
X246218515Y-49398123D01*
X246315000Y-49494608D01*
X246315000Y-72505392D01*
X246218515Y-72601877D01*
X245993846Y-72227832D01*
X245010612Y-71829120D01*
X243949643Y-71837025D01*
X243006154Y-72227832D01*
X242781485Y-72601877D01*
X242696173Y-72516565D01*
X242714780Y-72423020D01*
X242714780Y-71460360D01*
X242654843Y-71159035D01*
X242484156Y-70903584D01*
X242072676Y-70492104D01*
X241817225Y-70321417D01*
X241515900Y-70261480D01*
X240979960Y-70261480D01*
X240678635Y-70321417D01*
X240423184Y-70492104D01*
X240160183Y-70755105D01*
X239915700Y-70856123D01*
X239665402Y-71105984D01*
X239657935Y-71123967D01*
X239505536Y-70971302D01*
X239178909Y-70835674D01*
X238825243Y-70835366D01*
X238498380Y-70970423D01*
X238248082Y-71220284D01*
X238145897Y-71466371D01*
X235446810Y-74165458D01*
X229679412Y-74165458D01*
X221310121Y-65796167D01*
X221502948Y-65783529D01*
X222075104Y-65501372D01*
X222495730Y-65021740D01*
X222700791Y-64417651D01*
X222659068Y-63781071D01*
X222376911Y-63208915D01*
X221897279Y-62788288D01*
X220903899Y-62214760D01*
X241239040Y-62214760D01*
X241579246Y-62147089D01*
X241867658Y-61954378D01*
X242202938Y-61619098D01*
X242327538Y-61494716D01*
X242463166Y-61168089D01*
X242463474Y-60814423D01*
X242395651Y-60650279D01*
X242395650Y-60650274D01*
X242395647Y-60650270D01*
X242328417Y-60487560D01*
X242078556Y-60237262D01*
X241914528Y-60169151D01*
X241914526Y-60169150D01*
X241914524Y-60169150D01*
X241751929Y-60101634D01*
X241398263Y-60101326D01*
X241234118Y-60169149D01*
X241234115Y-60169150D01*
X241234113Y-60169151D01*
X241071400Y-60236383D01*
X240870673Y-60436760D01*
X232451672Y-60436760D01*
X233443137Y-59445295D01*
X233687620Y-59344277D01*
X233937918Y-59094416D01*
X234073546Y-58767789D01*
X234073712Y-58577480D01*
X242477528Y-58577480D01*
X243255800Y-59355752D01*
X243255800Y-62076568D01*
X242558808Y-62773560D01*
X242148637Y-62773560D01*
X241904329Y-62672114D01*
X241550663Y-62671806D01*
X241281605Y-62782979D01*
X241265756Y-62767102D01*
X240939129Y-62631474D01*
X240585463Y-62631166D01*
X240258600Y-62766223D01*
X240008302Y-63016084D01*
X239872674Y-63342711D01*
X239872366Y-63696377D01*
X240007423Y-64023240D01*
X240257284Y-64273538D01*
X240346999Y-64310791D01*
X240905784Y-64869576D01*
X241161235Y-65040263D01*
X241462560Y-65100200D01*
X242779702Y-65100200D01*
X243081027Y-65040263D01*
X243336478Y-64869576D01*
X245057178Y-63148876D01*
X245227865Y-62893425D01*
X245287802Y-62592100D01*
X245287802Y-58840220D01*
X245227865Y-58538895D01*
X245057178Y-58283444D01*
X243549836Y-56776102D01*
X243294385Y-56605415D01*
X242993060Y-56545478D01*
X232657500Y-56545478D01*
X232356175Y-56605415D01*
X232100724Y-56776102D01*
X229811672Y-59065154D01*
X222291064Y-59065154D01*
X222403480Y-58500000D01*
X222279023Y-57874313D01*
X221924600Y-57343880D01*
X221394167Y-56989457D01*
X220768480Y-56865000D01*
X217951520Y-56865000D01*
X217325833Y-56989457D01*
X216795400Y-57343880D01*
X216440977Y-57874313D01*
X216316520Y-58500000D01*
X216428936Y-59065154D01*
X213484374Y-59065154D01*
X213625538Y-58924236D01*
X213761166Y-58597609D01*
X213761474Y-58243943D01*
X213626417Y-57917080D01*
X213376556Y-57666782D01*
X213253326Y-57615612D01*
X211482940Y-55845226D01*
X211482940Y-55824123D01*
X211838260Y-56135730D01*
X212442349Y-56340791D01*
X213078929Y-56299068D01*
X213651085Y-56016911D01*
X214071711Y-55537279D01*
X214140778Y-55417651D01*
X215019209Y-55417651D01*
X215224270Y-56021740D01*
X215644896Y-56501372D01*
X216217052Y-56783529D01*
X216853632Y-56825252D01*
X217457721Y-56620191D01*
X219897279Y-55211712D01*
X220376911Y-54791085D01*
X220659068Y-54218929D01*
X220700791Y-53582349D01*
X220495730Y-52978260D01*
X220075104Y-52498628D01*
X219502948Y-52216471D01*
X218866368Y-52174748D01*
X218262279Y-52379809D01*
X215822721Y-53788289D01*
X215343089Y-54208915D01*
X215060932Y-54781071D01*
X215019209Y-55417651D01*
X214140778Y-55417651D01*
X215480191Y-53097721D01*
X215685252Y-52493632D01*
X215643529Y-51857052D01*
X215538108Y-51643280D01*
X228736128Y-51643280D01*
X232104877Y-55012029D01*
X232029154Y-55194391D01*
X232028846Y-55548057D01*
X232163903Y-55874920D01*
X232413764Y-56125218D01*
X232740391Y-56260846D01*
X233094057Y-56261154D01*
X233299100Y-56176432D01*
X233502391Y-56260846D01*
X233856057Y-56261154D01*
X234061100Y-56176432D01*
X234264391Y-56260846D01*
X234618057Y-56261154D01*
X234823100Y-56176432D01*
X235026391Y-56260846D01*
X235380057Y-56261154D01*
X235585100Y-56176432D01*
X235788391Y-56260846D01*
X236142057Y-56261154D01*
X236347100Y-56176432D01*
X236550391Y-56260846D01*
X236904057Y-56261154D01*
X237109100Y-56176432D01*
X237312391Y-56260846D01*
X237666057Y-56261154D01*
X237871100Y-56176432D01*
X238074391Y-56260846D01*
X238428057Y-56261154D01*
X238633100Y-56176432D01*
X238836391Y-56260846D01*
X239190057Y-56261154D01*
X239395100Y-56176432D01*
X239598391Y-56260846D01*
X239952057Y-56261154D01*
X240157100Y-56176432D01*
X240360391Y-56260846D01*
X240714057Y-56261154D01*
X241040920Y-56126097D01*
X241291218Y-55876236D01*
X241426846Y-55549609D01*
X241427154Y-55195943D01*
X241325400Y-54949679D01*
X241325400Y-52384960D01*
X241265463Y-52083635D01*
X241094776Y-51828184D01*
X234978456Y-45711864D01*
X234938251Y-45685000D01*
X242505392Y-45685000D01*
X242601877Y-45781485D01*
X242601877Y-45781485D01*
G37*
X242601877Y-45781485D02*
X242227832Y-46006154D01*
X241829120Y-46989388D01*
X241837025Y-48050357D01*
X242227832Y-48993846D01*
X242601879Y-49218516D01*
X244320395Y-47500000D01*
X244306253Y-47485858D01*
X244485858Y-47306253D01*
X244500000Y-47320395D01*
X244514143Y-47306253D01*
X244693748Y-47485858D01*
X244679605Y-47500000D01*
X244693748Y-47514143D01*
X244514143Y-47693748D01*
X244500000Y-47679605D01*
X242781484Y-49398121D01*
X243006154Y-49772168D01*
X243989388Y-50170880D01*
X245050357Y-50162975D01*
X245993846Y-49772168D01*
X246218515Y-49398123D01*
X246315000Y-49494608D01*
X246315000Y-72505392D01*
X246218515Y-72601877D01*
X245993846Y-72227832D01*
X245010612Y-71829120D01*
X243949643Y-71837025D01*
X243006154Y-72227832D01*
X242781485Y-72601877D01*
X242696173Y-72516565D01*
X242714780Y-72423020D01*
X242714780Y-71460360D01*
X242654843Y-71159035D01*
X242484156Y-70903584D01*
X242072676Y-70492104D01*
X241817225Y-70321417D01*
X241515900Y-70261480D01*
X240979960Y-70261480D01*
X240678635Y-70321417D01*
X240423184Y-70492104D01*
X240160183Y-70755105D01*
X239915700Y-70856123D01*
X239665402Y-71105984D01*
X239657935Y-71123967D01*
X239505536Y-70971302D01*
X239178909Y-70835674D01*
X238825243Y-70835366D01*
X238498380Y-70970423D01*
X238248082Y-71220284D01*
X238145897Y-71466371D01*
X235446810Y-74165458D01*
X229679412Y-74165458D01*
X221310121Y-65796167D01*
X221502948Y-65783529D01*
X222075104Y-65501372D01*
X222495730Y-65021740D01*
X222700791Y-64417651D01*
X222659068Y-63781071D01*
X222376911Y-63208915D01*
X221897279Y-62788288D01*
X220903899Y-62214760D01*
X241239040Y-62214760D01*
X241579246Y-62147089D01*
X241867658Y-61954378D01*
X242202938Y-61619098D01*
X242327538Y-61494716D01*
X242463166Y-61168089D01*
X242463474Y-60814423D01*
X242395651Y-60650279D01*
X242395650Y-60650274D01*
X242395647Y-60650270D01*
X242328417Y-60487560D01*
X242078556Y-60237262D01*
X241914528Y-60169151D01*
X241914526Y-60169150D01*
X241914524Y-60169150D01*
X241751929Y-60101634D01*
X241398263Y-60101326D01*
X241234118Y-60169149D01*
X241234115Y-60169150D01*
X241234113Y-60169151D01*
X241071400Y-60236383D01*
X240870673Y-60436760D01*
X232451672Y-60436760D01*
X233443137Y-59445295D01*
X233687620Y-59344277D01*
X233937918Y-59094416D01*
X234073546Y-58767789D01*
X234073712Y-58577480D01*
X242477528Y-58577480D01*
X243255800Y-59355752D01*
X243255800Y-62076568D01*
X242558808Y-62773560D01*
X242148637Y-62773560D01*
X241904329Y-62672114D01*
X241550663Y-62671806D01*
X241281605Y-62782979D01*
X241265756Y-62767102D01*
X240939129Y-62631474D01*
X240585463Y-62631166D01*
X240258600Y-62766223D01*
X240008302Y-63016084D01*
X239872674Y-63342711D01*
X239872366Y-63696377D01*
X240007423Y-64023240D01*
X240257284Y-64273538D01*
X240346999Y-64310791D01*
X240905784Y-64869576D01*
X241161235Y-65040263D01*
X241462560Y-65100200D01*
X242779702Y-65100200D01*
X243081027Y-65040263D01*
X243336478Y-64869576D01*
X245057178Y-63148876D01*
X245227865Y-62893425D01*
X245287802Y-62592100D01*
X245287802Y-58840220D01*
X245227865Y-58538895D01*
X245057178Y-58283444D01*
X243549836Y-56776102D01*
X243294385Y-56605415D01*
X242993060Y-56545478D01*
X232657500Y-56545478D01*
X232356175Y-56605415D01*
X232100724Y-56776102D01*
X229811672Y-59065154D01*
X222291064Y-59065154D01*
X222403480Y-58500000D01*
X222279023Y-57874313D01*
X221924600Y-57343880D01*
X221394167Y-56989457D01*
X220768480Y-56865000D01*
X217951520Y-56865000D01*
X217325833Y-56989457D01*
X216795400Y-57343880D01*
X216440977Y-57874313D01*
X216316520Y-58500000D01*
X216428936Y-59065154D01*
X213484374Y-59065154D01*
X213625538Y-58924236D01*
X213761166Y-58597609D01*
X213761474Y-58243943D01*
X213626417Y-57917080D01*
X213376556Y-57666782D01*
X213253326Y-57615612D01*
X211482940Y-55845226D01*
X211482940Y-55824123D01*
X211838260Y-56135730D01*
X212442349Y-56340791D01*
X213078929Y-56299068D01*
X213651085Y-56016911D01*
X214071711Y-55537279D01*
X214140778Y-55417651D01*
X215019209Y-55417651D01*
X215224270Y-56021740D01*
X215644896Y-56501372D01*
X216217052Y-56783529D01*
X216853632Y-56825252D01*
X217457721Y-56620191D01*
X219897279Y-55211712D01*
X220376911Y-54791085D01*
X220659068Y-54218929D01*
X220700791Y-53582349D01*
X220495730Y-52978260D01*
X220075104Y-52498628D01*
X219502948Y-52216471D01*
X218866368Y-52174748D01*
X218262279Y-52379809D01*
X215822721Y-53788289D01*
X215343089Y-54208915D01*
X215060932Y-54781071D01*
X215019209Y-55417651D01*
X214140778Y-55417651D01*
X215480191Y-53097721D01*
X215685252Y-52493632D01*
X215643529Y-51857052D01*
X215538108Y-51643280D01*
X228736128Y-51643280D01*
X232104877Y-55012029D01*
X232029154Y-55194391D01*
X232028846Y-55548057D01*
X232163903Y-55874920D01*
X232413764Y-56125218D01*
X232740391Y-56260846D01*
X233094057Y-56261154D01*
X233299100Y-56176432D01*
X233502391Y-56260846D01*
X233856057Y-56261154D01*
X234061100Y-56176432D01*
X234264391Y-56260846D01*
X234618057Y-56261154D01*
X234823100Y-56176432D01*
X235026391Y-56260846D01*
X235380057Y-56261154D01*
X235585100Y-56176432D01*
X235788391Y-56260846D01*
X236142057Y-56261154D01*
X236347100Y-56176432D01*
X236550391Y-56260846D01*
X236904057Y-56261154D01*
X237109100Y-56176432D01*
X237312391Y-56260846D01*
X237666057Y-56261154D01*
X237871100Y-56176432D01*
X238074391Y-56260846D01*
X238428057Y-56261154D01*
X238633100Y-56176432D01*
X238836391Y-56260846D01*
X239190057Y-56261154D01*
X239395100Y-56176432D01*
X239598391Y-56260846D01*
X239952057Y-56261154D01*
X240157100Y-56176432D01*
X240360391Y-56260846D01*
X240714057Y-56261154D01*
X241040920Y-56126097D01*
X241291218Y-55876236D01*
X241426846Y-55549609D01*
X241427154Y-55195943D01*
X241325400Y-54949679D01*
X241325400Y-52384960D01*
X241265463Y-52083635D01*
X241094776Y-51828184D01*
X234978456Y-45711864D01*
X234938251Y-45685000D01*
X242505392Y-45685000D01*
X242601877Y-45781485D01*
G36*
X73611224Y-64848224D02*
X73440537Y-65103675D01*
X73380600Y-65405000D01*
X73380600Y-69596000D01*
X73440537Y-69897325D01*
X73611224Y-70152776D01*
X74629250Y-71170802D01*
X61163196Y-71170802D01*
X59918879Y-69926485D01*
X59934093Y-69850000D01*
X59821054Y-69281715D01*
X59499147Y-68799946D01*
X59169974Y-68580000D01*
X59499147Y-68360054D01*
X59821054Y-67878285D01*
X59934093Y-67310000D01*
X59821054Y-66741715D01*
X59499147Y-66259946D01*
X59169974Y-66040000D01*
X59499147Y-65820054D01*
X59660748Y-65578200D01*
X59838260Y-65578200D01*
X64702759Y-70442699D01*
X64974690Y-70624398D01*
X65295456Y-70688202D01*
X69625312Y-70688202D01*
X69946078Y-70624398D01*
X70218009Y-70442699D01*
X72022581Y-68638127D01*
X72204280Y-68366196D01*
X72268084Y-68045430D01*
X72268084Y-65972004D01*
X74173662Y-64066426D01*
X74393022Y-64066426D01*
X73611224Y-64848224D01*
X73611224Y-64848224D01*
G37*
X73611224Y-64848224D02*
X73440537Y-65103675D01*
X73380600Y-65405000D01*
X73380600Y-69596000D01*
X73440537Y-69897325D01*
X73611224Y-70152776D01*
X74629250Y-71170802D01*
X61163196Y-71170802D01*
X59918879Y-69926485D01*
X59934093Y-69850000D01*
X59821054Y-69281715D01*
X59499147Y-68799946D01*
X59169974Y-68580000D01*
X59499147Y-68360054D01*
X59821054Y-67878285D01*
X59934093Y-67310000D01*
X59821054Y-66741715D01*
X59499147Y-66259946D01*
X59169974Y-66040000D01*
X59499147Y-65820054D01*
X59660748Y-65578200D01*
X59838260Y-65578200D01*
X64702759Y-70442699D01*
X64974690Y-70624398D01*
X65295456Y-70688202D01*
X69625312Y-70688202D01*
X69946078Y-70624398D01*
X70218009Y-70442699D01*
X72022581Y-68638127D01*
X72204280Y-68366196D01*
X72268084Y-68045430D01*
X72268084Y-65972004D01*
X74173662Y-64066426D01*
X74393022Y-64066426D01*
X73611224Y-64848224D01*
G36*
X78216640Y-59588916D02*
X78472091Y-59759603D01*
X78671240Y-59799216D01*
X71402968Y-59799216D01*
X71112896Y-59509144D01*
X70857445Y-59338457D01*
X70556120Y-59278520D01*
X68193920Y-59278520D01*
X67892595Y-59338457D01*
X67637144Y-59509144D01*
X67131684Y-60014604D01*
X66960997Y-60270055D01*
X66901060Y-60571380D01*
X66901060Y-62630288D01*
X66278760Y-62007988D01*
X66278760Y-56918860D01*
X66218823Y-56617535D01*
X66048136Y-56362084D01*
X64464335Y-54778283D01*
X64363317Y-54533800D01*
X64113456Y-54283502D01*
X63786829Y-54147874D01*
X63433163Y-54147566D01*
X63106300Y-54282623D01*
X62856002Y-54532484D01*
X62720374Y-54859111D01*
X62720066Y-55212777D01*
X62855123Y-55539640D01*
X63104984Y-55789938D01*
X63351071Y-55892123D01*
X64703960Y-57245012D01*
X64703960Y-62334140D01*
X64763897Y-62635465D01*
X64934584Y-62890916D01*
X68399144Y-66355476D01*
X68654595Y-66526163D01*
X68955920Y-66586100D01*
X69372480Y-66586100D01*
X69372480Y-66707649D01*
X69245289Y-66654834D01*
X68891623Y-66654526D01*
X68768305Y-66705480D01*
X68419194Y-66705480D01*
X60781017Y-59067303D01*
X60509086Y-58885604D01*
X60188320Y-58821800D01*
X59620658Y-58821800D01*
X59499147Y-58639946D01*
X59169974Y-58420000D01*
X59499147Y-58200054D01*
X59821054Y-57718285D01*
X59934093Y-57150000D01*
X59821054Y-56581715D01*
X59499147Y-56099946D01*
X59169974Y-55880000D01*
X59499147Y-55660054D01*
X59821054Y-55178285D01*
X59934093Y-54610000D01*
X59897005Y-54423547D01*
X60668132Y-53652420D01*
X63738400Y-53652420D01*
X63838103Y-53893720D01*
X64087964Y-54144018D01*
X64414591Y-54279646D01*
X64768257Y-54279954D01*
X65095120Y-54144897D01*
X65345418Y-53895036D01*
X65481046Y-53568409D01*
X65481354Y-53214743D01*
X65346297Y-52887880D01*
X65285923Y-52827400D01*
X71455124Y-52827400D01*
X78216640Y-59588916D01*
X78216640Y-59588916D01*
G37*
X78216640Y-59588916D02*
X78472091Y-59759603D01*
X78671240Y-59799216D01*
X71402968Y-59799216D01*
X71112896Y-59509144D01*
X70857445Y-59338457D01*
X70556120Y-59278520D01*
X68193920Y-59278520D01*
X67892595Y-59338457D01*
X67637144Y-59509144D01*
X67131684Y-60014604D01*
X66960997Y-60270055D01*
X66901060Y-60571380D01*
X66901060Y-62630288D01*
X66278760Y-62007988D01*
X66278760Y-56918860D01*
X66218823Y-56617535D01*
X66048136Y-56362084D01*
X64464335Y-54778283D01*
X64363317Y-54533800D01*
X64113456Y-54283502D01*
X63786829Y-54147874D01*
X63433163Y-54147566D01*
X63106300Y-54282623D01*
X62856002Y-54532484D01*
X62720374Y-54859111D01*
X62720066Y-55212777D01*
X62855123Y-55539640D01*
X63104984Y-55789938D01*
X63351071Y-55892123D01*
X64703960Y-57245012D01*
X64703960Y-62334140D01*
X64763897Y-62635465D01*
X64934584Y-62890916D01*
X68399144Y-66355476D01*
X68654595Y-66526163D01*
X68955920Y-66586100D01*
X69372480Y-66586100D01*
X69372480Y-66707649D01*
X69245289Y-66654834D01*
X68891623Y-66654526D01*
X68768305Y-66705480D01*
X68419194Y-66705480D01*
X60781017Y-59067303D01*
X60509086Y-58885604D01*
X60188320Y-58821800D01*
X59620658Y-58821800D01*
X59499147Y-58639946D01*
X59169974Y-58420000D01*
X59499147Y-58200054D01*
X59821054Y-57718285D01*
X59934093Y-57150000D01*
X59821054Y-56581715D01*
X59499147Y-56099946D01*
X59169974Y-55880000D01*
X59499147Y-55660054D01*
X59821054Y-55178285D01*
X59934093Y-54610000D01*
X59897005Y-54423547D01*
X60668132Y-53652420D01*
X63738400Y-53652420D01*
X63838103Y-53893720D01*
X64087964Y-54144018D01*
X64414591Y-54279646D01*
X64768257Y-54279954D01*
X65095120Y-54144897D01*
X65345418Y-53895036D01*
X65481046Y-53568409D01*
X65481354Y-53214743D01*
X65346297Y-52887880D01*
X65285923Y-52827400D01*
X71455124Y-52827400D01*
X78216640Y-59588916D01*
G36*
X184365000Y-55772966D02*
X184218929Y-55700932D01*
X183582349Y-55659209D01*
X182978260Y-55864270D01*
X182498628Y-56284896D01*
X182216471Y-56857052D01*
X182174748Y-57493632D01*
X182379809Y-58097721D01*
X183788288Y-60537279D01*
X184208915Y-61016911D01*
X184781071Y-61299068D01*
X185088799Y-61319237D01*
X184985814Y-61567251D01*
X184985644Y-61761986D01*
X184952640Y-61775623D01*
X184707370Y-62020465D01*
X183597721Y-61379809D01*
X182993632Y-61174748D01*
X182800930Y-61187378D01*
X182118000Y-60504448D01*
X182118000Y-55644838D01*
X182133431Y-55651246D01*
X182487097Y-55651554D01*
X182813960Y-55516497D01*
X183064258Y-55266636D01*
X183115428Y-55143406D01*
X184365000Y-53893834D01*
X184365000Y-55772966D01*
X184365000Y-55772966D01*
G37*
X184365000Y-55772966D02*
X184218929Y-55700932D01*
X183582349Y-55659209D01*
X182978260Y-55864270D01*
X182498628Y-56284896D01*
X182216471Y-56857052D01*
X182174748Y-57493632D01*
X182379809Y-58097721D01*
X183788288Y-60537279D01*
X184208915Y-61016911D01*
X184781071Y-61299068D01*
X185088799Y-61319237D01*
X184985814Y-61567251D01*
X184985644Y-61761986D01*
X184952640Y-61775623D01*
X184707370Y-62020465D01*
X183597721Y-61379809D01*
X182993632Y-61174748D01*
X182800930Y-61187378D01*
X182118000Y-60504448D01*
X182118000Y-55644838D01*
X182133431Y-55651246D01*
X182487097Y-55651554D01*
X182813960Y-55516497D01*
X183064258Y-55266636D01*
X183115428Y-55143406D01*
X184365000Y-53893834D01*
X184365000Y-55772966D01*
G36*
X188307103Y-57361697D02*
X188579035Y-57543396D01*
X188899800Y-57607200D01*
X190632011Y-57607200D01*
X190631926Y-57704517D01*
X190766983Y-58031380D01*
X191016844Y-58281678D01*
X191343471Y-58417306D01*
X191697137Y-58417614D01*
X192024000Y-58282557D01*
X192274298Y-58032696D01*
X192409926Y-57706069D01*
X192410012Y-57607200D01*
X193759456Y-57607200D01*
X193580977Y-57874313D01*
X193456520Y-58500000D01*
X193580977Y-59125687D01*
X193601628Y-59156594D01*
X192402162Y-59156594D01*
X192100837Y-59216531D01*
X191845386Y-59387218D01*
X189475046Y-61757558D01*
X187000910Y-61757558D01*
X186729775Y-61486423D01*
X186628757Y-61241940D01*
X186378896Y-60991642D01*
X186248013Y-60937294D01*
X186501372Y-60715104D01*
X186783529Y-60142948D01*
X186825252Y-59506368D01*
X186620191Y-58902279D01*
X185814370Y-57506556D01*
X186000000Y-57543480D01*
X186625687Y-57419023D01*
X187156120Y-57064600D01*
X187498138Y-56552732D01*
X188307103Y-57361697D01*
X188307103Y-57361697D01*
G37*
X188307103Y-57361697D02*
X188579035Y-57543396D01*
X188899800Y-57607200D01*
X190632011Y-57607200D01*
X190631926Y-57704517D01*
X190766983Y-58031380D01*
X191016844Y-58281678D01*
X191343471Y-58417306D01*
X191697137Y-58417614D01*
X192024000Y-58282557D01*
X192274298Y-58032696D01*
X192409926Y-57706069D01*
X192410012Y-57607200D01*
X193759456Y-57607200D01*
X193580977Y-57874313D01*
X193456520Y-58500000D01*
X193580977Y-59125687D01*
X193601628Y-59156594D01*
X192402162Y-59156594D01*
X192100837Y-59216531D01*
X191845386Y-59387218D01*
X189475046Y-61757558D01*
X187000910Y-61757558D01*
X186729775Y-61486423D01*
X186628757Y-61241940D01*
X186378896Y-60991642D01*
X186248013Y-60937294D01*
X186501372Y-60715104D01*
X186783529Y-60142948D01*
X186825252Y-59506368D01*
X186620191Y-58902279D01*
X185814370Y-57506556D01*
X186000000Y-57543480D01*
X186625687Y-57419023D01*
X187156120Y-57064600D01*
X187498138Y-56552732D01*
X188307103Y-57361697D01*
G36*
X132346700Y-57069752D02*
X132346700Y-60314999D01*
X132167676Y-60135662D01*
X131841049Y-60000034D01*
X131487383Y-59999726D01*
X131241119Y-60101480D01*
X130883574Y-60101480D01*
X130456794Y-59674700D01*
X130484600Y-59656120D01*
X130839023Y-59125687D01*
X130963480Y-58500000D01*
X130839023Y-57874313D01*
X130528165Y-57409080D01*
X131236862Y-57409080D01*
X131358831Y-57459726D01*
X131712497Y-57460034D01*
X132039360Y-57324977D01*
X132289658Y-57075116D01*
X132307968Y-57031020D01*
X132346700Y-57069752D01*
X132346700Y-57069752D01*
G37*
X132346700Y-57069752D02*
X132346700Y-60314999D01*
X132167676Y-60135662D01*
X131841049Y-60000034D01*
X131487383Y-59999726D01*
X131241119Y-60101480D01*
X130883574Y-60101480D01*
X130456794Y-59674700D01*
X130484600Y-59656120D01*
X130839023Y-59125687D01*
X130963480Y-58500000D01*
X130839023Y-57874313D01*
X130528165Y-57409080D01*
X131236862Y-57409080D01*
X131358831Y-57459726D01*
X131712497Y-57460034D01*
X132039360Y-57324977D01*
X132289658Y-57075116D01*
X132307968Y-57031020D01*
X132346700Y-57069752D01*
G36*
X207225000Y-53091520D02*
X207225000Y-55772966D01*
X207078929Y-55700932D01*
X206442349Y-55659209D01*
X205838260Y-55864270D01*
X205358628Y-56284896D01*
X205076471Y-56857052D01*
X205034748Y-57493632D01*
X205239809Y-58097721D01*
X206455337Y-60203078D01*
X199401820Y-60203078D01*
X198938871Y-59740129D01*
X199064600Y-59656120D01*
X199419023Y-59125687D01*
X199543480Y-58500000D01*
X199419023Y-57874313D01*
X199240544Y-57607200D01*
X202316080Y-57607200D01*
X202636846Y-57543396D01*
X202908777Y-57361697D01*
X207236433Y-53034041D01*
X207225000Y-53091520D01*
X207225000Y-53091520D01*
G37*
X207225000Y-53091520D02*
X207225000Y-55772966D01*
X207078929Y-55700932D01*
X206442349Y-55659209D01*
X205838260Y-55864270D01*
X205358628Y-56284896D01*
X205076471Y-56857052D01*
X205034748Y-57493632D01*
X205239809Y-58097721D01*
X206455337Y-60203078D01*
X199401820Y-60203078D01*
X198938871Y-59740129D01*
X199064600Y-59656120D01*
X199419023Y-59125687D01*
X199543480Y-58500000D01*
X199419023Y-57874313D01*
X199240544Y-57607200D01*
X202316080Y-57607200D01*
X202636846Y-57543396D01*
X202908777Y-57361697D01*
X207236433Y-53034041D01*
X207225000Y-53091520D01*
G36*
X165519809Y-53902279D02*
X165314748Y-54506368D01*
X165356471Y-55142948D01*
X165638628Y-55715104D01*
X166118260Y-56135730D01*
X166722349Y-56340791D01*
X167358929Y-56299068D01*
X167931085Y-56016911D01*
X168351711Y-55537279D01*
X169760191Y-53097721D01*
X169965252Y-52493632D01*
X169964456Y-52481480D01*
X172366180Y-52481480D01*
X170102721Y-53788289D01*
X169623089Y-54208915D01*
X169340932Y-54781071D01*
X169299209Y-55417651D01*
X169504270Y-56021740D01*
X169924896Y-56501372D01*
X170497052Y-56783529D01*
X171133632Y-56825252D01*
X171737721Y-56620191D01*
X174046183Y-55287400D01*
X176492680Y-55287400D01*
X176794005Y-55227463D01*
X177049456Y-55056776D01*
X178257190Y-53849042D01*
X178257190Y-55731658D01*
X176380986Y-57607862D01*
X176204600Y-57343880D01*
X175674167Y-56989457D01*
X175048480Y-56865000D01*
X172231520Y-56865000D01*
X171605833Y-56989457D01*
X171075400Y-57343880D01*
X170720977Y-57874313D01*
X170596520Y-58500000D01*
X170720977Y-59125687D01*
X170784062Y-59220100D01*
X164325300Y-59220100D01*
X164023975Y-59280037D01*
X163913484Y-59353865D01*
X163760191Y-58902279D01*
X162954370Y-57506556D01*
X163140000Y-57543480D01*
X163765687Y-57419023D01*
X164296120Y-57064600D01*
X164650543Y-56534167D01*
X164775000Y-55908480D01*
X164775000Y-53097072D01*
X166289752Y-51582320D01*
X166859238Y-51582320D01*
X165519809Y-53902279D01*
X165519809Y-53902279D01*
G37*
X165519809Y-53902279D02*
X165314748Y-54506368D01*
X165356471Y-55142948D01*
X165638628Y-55715104D01*
X166118260Y-56135730D01*
X166722349Y-56340791D01*
X167358929Y-56299068D01*
X167931085Y-56016911D01*
X168351711Y-55537279D01*
X169760191Y-53097721D01*
X169965252Y-52493632D01*
X169964456Y-52481480D01*
X172366180Y-52481480D01*
X170102721Y-53788289D01*
X169623089Y-54208915D01*
X169340932Y-54781071D01*
X169299209Y-55417651D01*
X169504270Y-56021740D01*
X169924896Y-56501372D01*
X170497052Y-56783529D01*
X171133632Y-56825252D01*
X171737721Y-56620191D01*
X174046183Y-55287400D01*
X176492680Y-55287400D01*
X176794005Y-55227463D01*
X177049456Y-55056776D01*
X178257190Y-53849042D01*
X178257190Y-55731658D01*
X176380986Y-57607862D01*
X176204600Y-57343880D01*
X175674167Y-56989457D01*
X175048480Y-56865000D01*
X172231520Y-56865000D01*
X171605833Y-56989457D01*
X171075400Y-57343880D01*
X170720977Y-57874313D01*
X170596520Y-58500000D01*
X170720977Y-59125687D01*
X170784062Y-59220100D01*
X164325300Y-59220100D01*
X164023975Y-59280037D01*
X163913484Y-59353865D01*
X163760191Y-58902279D01*
X162954370Y-57506556D01*
X163140000Y-57543480D01*
X163765687Y-57419023D01*
X164296120Y-57064600D01*
X164650543Y-56534167D01*
X164775000Y-55908480D01*
X164775000Y-53097072D01*
X166289752Y-51582320D01*
X166859238Y-51582320D01*
X165519809Y-53902279D01*
G36*
X138645000Y-53978552D02*
X138645000Y-55772966D01*
X138498929Y-55700932D01*
X137862349Y-55659209D01*
X137258260Y-55864270D01*
X136778628Y-56284896D01*
X136720912Y-56401932D01*
X129493380Y-49174400D01*
X133840848Y-49174400D01*
X138645000Y-53978552D01*
X138645000Y-53978552D01*
G37*
X138645000Y-53978552D02*
X138645000Y-55772966D01*
X138498929Y-55700932D01*
X137862349Y-55659209D01*
X137258260Y-55864270D01*
X136778628Y-56284896D01*
X136720912Y-56401932D01*
X129493380Y-49174400D01*
X133840848Y-49174400D01*
X138645000Y-53978552D01*
G36*
X82863784Y-48212600D02*
X80171917Y-48212600D01*
X79927609Y-48111154D01*
X79573943Y-48110846D01*
X79247080Y-48245903D01*
X78996782Y-48495764D01*
X78861154Y-48822391D01*
X78860846Y-49176057D01*
X78943083Y-49375085D01*
X78861154Y-49572391D01*
X78860846Y-49926057D01*
X78943083Y-50125085D01*
X78861154Y-50322391D01*
X78860846Y-50676057D01*
X78943083Y-50875085D01*
X78861154Y-51072391D01*
X78860846Y-51426057D01*
X78943083Y-51625085D01*
X78861154Y-51822391D01*
X78860846Y-52176057D01*
X78943083Y-52375085D01*
X78861154Y-52572391D01*
X78860846Y-52926057D01*
X78943083Y-53125085D01*
X78861154Y-53322391D01*
X78860846Y-53676057D01*
X78943083Y-53875085D01*
X78861154Y-54072391D01*
X78860846Y-54426057D01*
X78943083Y-54625085D01*
X78861154Y-54822391D01*
X78860846Y-55176057D01*
X78943083Y-55375085D01*
X78935594Y-55393120D01*
X72940595Y-49398121D01*
X74281484Y-49398121D01*
X74506154Y-49772168D01*
X75489388Y-50170880D01*
X76550357Y-50162975D01*
X77493846Y-49772168D01*
X77718516Y-49398121D01*
X76000000Y-47679605D01*
X74281484Y-49398121D01*
X72940595Y-49398121D01*
X71727474Y-48185000D01*
X73392796Y-48185000D01*
X73727832Y-48993846D01*
X74101879Y-49218516D01*
X75820395Y-47500000D01*
X75806253Y-47485858D01*
X75985858Y-47306253D01*
X76000000Y-47320395D01*
X76014143Y-47306253D01*
X76193748Y-47485858D01*
X76179605Y-47500000D01*
X77898121Y-49218516D01*
X78272168Y-48993846D01*
X78670880Y-48010612D01*
X78662975Y-46949643D01*
X78272168Y-46006154D01*
X77898123Y-45781485D01*
X77994608Y-45685000D01*
X85391384Y-45685000D01*
X82863784Y-48212600D01*
X82863784Y-48212600D01*
G37*
X82863784Y-48212600D02*
X80171917Y-48212600D01*
X79927609Y-48111154D01*
X79573943Y-48110846D01*
X79247080Y-48245903D01*
X78996782Y-48495764D01*
X78861154Y-48822391D01*
X78860846Y-49176057D01*
X78943083Y-49375085D01*
X78861154Y-49572391D01*
X78860846Y-49926057D01*
X78943083Y-50125085D01*
X78861154Y-50322391D01*
X78860846Y-50676057D01*
X78943083Y-50875085D01*
X78861154Y-51072391D01*
X78860846Y-51426057D01*
X78943083Y-51625085D01*
X78861154Y-51822391D01*
X78860846Y-52176057D01*
X78943083Y-52375085D01*
X78861154Y-52572391D01*
X78860846Y-52926057D01*
X78943083Y-53125085D01*
X78861154Y-53322391D01*
X78860846Y-53676057D01*
X78943083Y-53875085D01*
X78861154Y-54072391D01*
X78860846Y-54426057D01*
X78943083Y-54625085D01*
X78861154Y-54822391D01*
X78860846Y-55176057D01*
X78943083Y-55375085D01*
X78935594Y-55393120D01*
X72940595Y-49398121D01*
X74281484Y-49398121D01*
X74506154Y-49772168D01*
X75489388Y-50170880D01*
X76550357Y-50162975D01*
X77493846Y-49772168D01*
X77718516Y-49398121D01*
X76000000Y-47679605D01*
X74281484Y-49398121D01*
X72940595Y-49398121D01*
X71727474Y-48185000D01*
X73392796Y-48185000D01*
X73727832Y-48993846D01*
X74101879Y-49218516D01*
X75820395Y-47500000D01*
X75806253Y-47485858D01*
X75985858Y-47306253D01*
X76000000Y-47320395D01*
X76014143Y-47306253D01*
X76193748Y-47485858D01*
X76179605Y-47500000D01*
X77898121Y-49218516D01*
X78272168Y-48993846D01*
X78670880Y-48010612D01*
X78662975Y-46949643D01*
X78272168Y-46006154D01*
X77898123Y-45781485D01*
X77994608Y-45685000D01*
X85391384Y-45685000D01*
X82863784Y-48212600D01*
G36*
X70879625Y-49707939D02*
X70627240Y-49812223D01*
X70376942Y-50062084D01*
X70241314Y-50388711D01*
X70241088Y-50647821D01*
X70236080Y-50673000D01*
X70236080Y-51252600D01*
X59654601Y-51252600D01*
X59499147Y-51019946D01*
X59204730Y-50823223D01*
X59284353Y-50573958D01*
X58420000Y-49709605D01*
X58405858Y-49723748D01*
X58226253Y-49544143D01*
X58240395Y-49530000D01*
X58226253Y-49515858D01*
X58405858Y-49336253D01*
X58420000Y-49350395D01*
X58434143Y-49336253D01*
X58613748Y-49515858D01*
X58599605Y-49530000D01*
X59463958Y-50394353D01*
X59715259Y-50314080D01*
X59916718Y-49758721D01*
X59890315Y-49168542D01*
X59774906Y-48889920D01*
X70061606Y-48889920D01*
X70879625Y-49707939D01*
X70879625Y-49707939D01*
G37*
X70879625Y-49707939D02*
X70627240Y-49812223D01*
X70376942Y-50062084D01*
X70241314Y-50388711D01*
X70241088Y-50647821D01*
X70236080Y-50673000D01*
X70236080Y-51252600D01*
X59654601Y-51252600D01*
X59499147Y-51019946D01*
X59204730Y-50823223D01*
X59284353Y-50573958D01*
X58420000Y-49709605D01*
X58405858Y-49723748D01*
X58226253Y-49544143D01*
X58240395Y-49530000D01*
X58226253Y-49515858D01*
X58405858Y-49336253D01*
X58420000Y-49350395D01*
X58434143Y-49336253D01*
X58613748Y-49515858D01*
X58599605Y-49530000D01*
X59463958Y-50394353D01*
X59715259Y-50314080D01*
X59916718Y-49758721D01*
X59890315Y-49168542D01*
X59774906Y-48889920D01*
X70061606Y-48889920D01*
X70879625Y-49707939D01*
M02*
