G04 #@! TF.FileFunction,Legend,Top*
%FSLAX46Y46*%
G04 Gerber Fmt 4.6, Leading zero omitted, Abs format (unit mm)*
G04 Created by KiCad (PCBNEW 4.0.2-stable) date 13/08/2017 21:16:23*
%MOMM*%
G01*
G04 APERTURE LIST*
%ADD10C,0.100000*%
%ADD11C,0.300000*%
%ADD12C,0.150000*%
%ADD13C,0.304800*%
%ADD14C,0.203200*%
%ADD15C,0.063500*%
%ADD16C,0.127000*%
%ADD17C,0.120000*%
%ADD18C,0.152400*%
G04 APERTURE END LIST*
D10*
D11*
X60851143Y-71694524D02*
X60246381Y-71694524D01*
X60185905Y-72299286D01*
X60246381Y-72238810D01*
X60367333Y-72178333D01*
X60669714Y-72178333D01*
X60790667Y-72238810D01*
X60851143Y-72299286D01*
X60911619Y-72420238D01*
X60911619Y-72722619D01*
X60851143Y-72843571D01*
X60790667Y-72904048D01*
X60669714Y-72964524D01*
X60367333Y-72964524D01*
X60246381Y-72904048D01*
X60185905Y-72843571D01*
X61274476Y-71694524D02*
X61697810Y-72964524D01*
X62121143Y-71694524D01*
X60246381Y-70424524D02*
X60246381Y-69154524D01*
X60246381Y-69759286D02*
X60972095Y-69759286D01*
X60972095Y-70424524D02*
X60972095Y-69154524D01*
X61395428Y-69154524D02*
X61818762Y-70424524D01*
X62242095Y-69154524D01*
X60972095Y-67884524D02*
X60548762Y-67279762D01*
X60246381Y-67884524D02*
X60246381Y-66614524D01*
X60730190Y-66614524D01*
X60851143Y-66675000D01*
X60911619Y-66735476D01*
X60972095Y-66856429D01*
X60972095Y-67037857D01*
X60911619Y-67158810D01*
X60851143Y-67219286D01*
X60730190Y-67279762D01*
X60246381Y-67279762D01*
X60911619Y-64135000D02*
X60790667Y-64074524D01*
X60609238Y-64074524D01*
X60427810Y-64135000D01*
X60306857Y-64255952D01*
X60246381Y-64376905D01*
X60185905Y-64618810D01*
X60185905Y-64800238D01*
X60246381Y-65042143D01*
X60306857Y-65163095D01*
X60427810Y-65284048D01*
X60609238Y-65344524D01*
X60730190Y-65344524D01*
X60911619Y-65284048D01*
X60972095Y-65223571D01*
X60972095Y-64800238D01*
X60730190Y-64800238D01*
X60669714Y-62139286D02*
X60851143Y-62199762D01*
X60911619Y-62260238D01*
X60972095Y-62381190D01*
X60972095Y-62562619D01*
X60911619Y-62683571D01*
X60851143Y-62744048D01*
X60730190Y-62804524D01*
X60246381Y-62804524D01*
X60246381Y-61534524D01*
X60669714Y-61534524D01*
X60790667Y-61595000D01*
X60851143Y-61655476D01*
X60911619Y-61776429D01*
X60911619Y-61897381D01*
X60851143Y-62018333D01*
X60790667Y-62078810D01*
X60669714Y-62139286D01*
X60246381Y-62139286D01*
X60246381Y-60264524D02*
X60246381Y-58994524D01*
X60548762Y-58994524D01*
X60730190Y-59055000D01*
X60851143Y-59175952D01*
X60911619Y-59296905D01*
X60972095Y-59538810D01*
X60972095Y-59720238D01*
X60911619Y-59962143D01*
X60851143Y-60083095D01*
X60730190Y-60204048D01*
X60548762Y-60264524D01*
X60246381Y-60264524D01*
X61516381Y-60264524D02*
X61516381Y-58994524D01*
X62121143Y-60264524D02*
X62121143Y-58994524D01*
X62846857Y-60264524D01*
X62846857Y-58994524D01*
X60972095Y-57603571D02*
X60911619Y-57664048D01*
X60730190Y-57724524D01*
X60609238Y-57724524D01*
X60427810Y-57664048D01*
X60306857Y-57543095D01*
X60246381Y-57422143D01*
X60185905Y-57180238D01*
X60185905Y-56998810D01*
X60246381Y-56756905D01*
X60306857Y-56635952D01*
X60427810Y-56515000D01*
X60609238Y-56454524D01*
X60730190Y-56454524D01*
X60911619Y-56515000D01*
X60972095Y-56575476D01*
X62121143Y-57724524D02*
X61516381Y-57724524D01*
X61516381Y-56454524D01*
X62544476Y-57724524D02*
X62544476Y-56454524D01*
X63270190Y-57724524D02*
X62725905Y-56998810D01*
X63270190Y-56454524D02*
X62544476Y-57180238D01*
X60488286Y-53914524D02*
X60730190Y-53914524D01*
X60851143Y-53975000D01*
X60972095Y-54095952D01*
X61032571Y-54337857D01*
X61032571Y-54761190D01*
X60972095Y-55003095D01*
X60851143Y-55124048D01*
X60730190Y-55184524D01*
X60488286Y-55184524D01*
X60367333Y-55124048D01*
X60246381Y-55003095D01*
X60185905Y-54761190D01*
X60185905Y-54337857D01*
X60246381Y-54095952D01*
X60367333Y-53975000D01*
X60488286Y-53914524D01*
X61576857Y-54519286D02*
X62000190Y-54519286D01*
X62181619Y-55184524D02*
X61576857Y-55184524D01*
X61576857Y-53914524D01*
X62181619Y-53914524D01*
X60185905Y-52584048D02*
X60367333Y-52644524D01*
X60669714Y-52644524D01*
X60790667Y-52584048D01*
X60851143Y-52523571D01*
X60911619Y-52402619D01*
X60911619Y-52281667D01*
X60851143Y-52160714D01*
X60790667Y-52100238D01*
X60669714Y-52039762D01*
X60427810Y-51979286D01*
X60306857Y-51918810D01*
X60246381Y-51858333D01*
X60185905Y-51737381D01*
X60185905Y-51616429D01*
X60246381Y-51495476D01*
X60306857Y-51435000D01*
X60427810Y-51374524D01*
X60730190Y-51374524D01*
X60911619Y-51435000D01*
X62181619Y-52644524D02*
X61758286Y-52039762D01*
X61455905Y-52644524D02*
X61455905Y-51374524D01*
X61939714Y-51374524D01*
X62060667Y-51435000D01*
X62121143Y-51495476D01*
X62181619Y-51616429D01*
X62181619Y-51797857D01*
X62121143Y-51918810D01*
X62060667Y-51979286D01*
X61939714Y-52039762D01*
X61455905Y-52039762D01*
X63149238Y-51979286D02*
X63330667Y-52039762D01*
X63391143Y-52100238D01*
X63451619Y-52221190D01*
X63451619Y-52402619D01*
X63391143Y-52523571D01*
X63330667Y-52584048D01*
X63209714Y-52644524D01*
X62725905Y-52644524D01*
X62725905Y-51374524D01*
X63149238Y-51374524D01*
X63270191Y-51435000D01*
X63330667Y-51495476D01*
X63391143Y-51616429D01*
X63391143Y-51737381D01*
X63330667Y-51858333D01*
X63270191Y-51918810D01*
X63149238Y-51979286D01*
X62725905Y-51979286D01*
X60911619Y-48895000D02*
X60790667Y-48834524D01*
X60609238Y-48834524D01*
X60427810Y-48895000D01*
X60306857Y-49015952D01*
X60246381Y-49136905D01*
X60185905Y-49378810D01*
X60185905Y-49560238D01*
X60246381Y-49802143D01*
X60306857Y-49923095D01*
X60427810Y-50044048D01*
X60609238Y-50104524D01*
X60730190Y-50104524D01*
X60911619Y-50044048D01*
X60972095Y-49983571D01*
X60972095Y-49560238D01*
X60730190Y-49560238D01*
X61516381Y-50104524D02*
X61516381Y-48834524D01*
X62242095Y-50104524D01*
X62242095Y-48834524D01*
X62846857Y-50104524D02*
X62846857Y-48834524D01*
X63149238Y-48834524D01*
X63330666Y-48895000D01*
X63451619Y-49015952D01*
X63512095Y-49136905D01*
X63572571Y-49378810D01*
X63572571Y-49560238D01*
X63512095Y-49802143D01*
X63451619Y-49923095D01*
X63330666Y-50044048D01*
X63149238Y-50104524D01*
X62846857Y-50104524D01*
D12*
X244102000Y-70954000D02*
X245102000Y-70954000D01*
X245102000Y-69254000D02*
X244102000Y-69254000D01*
X62142000Y-65032000D02*
X62142000Y-66032000D01*
X63842000Y-66032000D02*
X63842000Y-65032000D01*
X245102000Y-56046000D02*
X244102000Y-56046000D01*
X244102000Y-57746000D02*
X245102000Y-57746000D01*
X64174000Y-65032000D02*
X64174000Y-66032000D01*
X65874000Y-66032000D02*
X65874000Y-65032000D01*
X97660000Y-65100000D02*
X100460000Y-65100000D01*
X100460000Y-65100000D02*
X100460000Y-61900000D01*
X97660000Y-65100000D02*
X97660000Y-61900000D01*
X97660000Y-61900000D02*
X100460000Y-61900000D01*
X120520000Y-65100000D02*
X123320000Y-65100000D01*
X123320000Y-65100000D02*
X123320000Y-61900000D01*
X120520000Y-65100000D02*
X120520000Y-61900000D01*
X120520000Y-61900000D02*
X123320000Y-61900000D01*
X143380000Y-65100000D02*
X146180000Y-65100000D01*
X146180000Y-65100000D02*
X146180000Y-61900000D01*
X143380000Y-65100000D02*
X143380000Y-61900000D01*
X143380000Y-61900000D02*
X146180000Y-61900000D01*
X166240000Y-65100000D02*
X169040000Y-65100000D01*
X169040000Y-65100000D02*
X169040000Y-61900000D01*
X166240000Y-65100000D02*
X166240000Y-61900000D01*
X166240000Y-61900000D02*
X169040000Y-61900000D01*
X68381680Y-50776440D02*
X65681680Y-50776440D01*
X68381680Y-52276440D02*
X65681680Y-52276440D01*
X66881680Y-51376440D02*
X66881680Y-51626440D01*
X66881680Y-51626440D02*
X67031680Y-51476440D01*
X67131680Y-51876440D02*
X67131680Y-51176440D01*
X66781680Y-51526440D02*
X66431680Y-51526440D01*
X67131680Y-51526440D02*
X66781680Y-51876440D01*
X66781680Y-51876440D02*
X66781680Y-51176440D01*
X66781680Y-51176440D02*
X67131680Y-51526440D01*
X189100000Y-65100000D02*
X191900000Y-65100000D01*
X191900000Y-65100000D02*
X191900000Y-61900000D01*
X189100000Y-65100000D02*
X189100000Y-61900000D01*
X189100000Y-61900000D02*
X191900000Y-61900000D01*
X211960000Y-65100000D02*
X214760000Y-65100000D01*
X214760000Y-65100000D02*
X214760000Y-61900000D01*
X211960000Y-65100000D02*
X211960000Y-61900000D01*
X211960000Y-61900000D02*
X214760000Y-61900000D01*
X100951000Y-58836000D02*
X100951000Y-60036000D01*
X99201000Y-60036000D02*
X99201000Y-58836000D01*
X99201000Y-68164000D02*
X99201000Y-66964000D01*
X100951000Y-66964000D02*
X100951000Y-68164000D01*
X97169000Y-68164000D02*
X97169000Y-66964000D01*
X98919000Y-66964000D02*
X98919000Y-68164000D01*
X106875000Y-72900000D02*
X106875000Y-74100000D01*
X105125000Y-74100000D02*
X105125000Y-72900000D01*
X129875000Y-72900000D02*
X129875000Y-74100000D01*
X128125000Y-74100000D02*
X128125000Y-72900000D01*
X152875000Y-72900000D02*
X152875000Y-74100000D01*
X151125000Y-74100000D02*
X151125000Y-72900000D01*
X175375000Y-72900000D02*
X175375000Y-74100000D01*
X173625000Y-74100000D02*
X173625000Y-72900000D01*
X198375000Y-72900000D02*
X198375000Y-74100000D01*
X196625000Y-74100000D02*
X196625000Y-72900000D01*
X221375000Y-72900000D02*
X221375000Y-74100000D01*
X219625000Y-74100000D02*
X219625000Y-72900000D01*
X123811000Y-58836000D02*
X123811000Y-60036000D01*
X122061000Y-60036000D02*
X122061000Y-58836000D01*
X122061000Y-68164000D02*
X122061000Y-66964000D01*
X123811000Y-66964000D02*
X123811000Y-68164000D01*
X120029000Y-68164000D02*
X120029000Y-66964000D01*
X121779000Y-66964000D02*
X121779000Y-68164000D01*
X146671000Y-58836000D02*
X146671000Y-60036000D01*
X144921000Y-60036000D02*
X144921000Y-58836000D01*
X144921000Y-68164000D02*
X144921000Y-66964000D01*
X146671000Y-66964000D02*
X146671000Y-68164000D01*
X142889000Y-68164000D02*
X142889000Y-66964000D01*
X144639000Y-66964000D02*
X144639000Y-68164000D01*
X169531000Y-58836000D02*
X169531000Y-60036000D01*
X167781000Y-60036000D02*
X167781000Y-58836000D01*
X167781000Y-68164000D02*
X167781000Y-66964000D01*
X169531000Y-66964000D02*
X169531000Y-68164000D01*
X67374060Y-50412620D02*
X66174060Y-50412620D01*
X66174060Y-48662620D02*
X67374060Y-48662620D01*
X165749000Y-68164000D02*
X165749000Y-66964000D01*
X167499000Y-66964000D02*
X167499000Y-68164000D01*
X192391000Y-58836000D02*
X192391000Y-60036000D01*
X190641000Y-60036000D02*
X190641000Y-58836000D01*
X190641000Y-68164000D02*
X190641000Y-66964000D01*
X192391000Y-66964000D02*
X192391000Y-68164000D01*
X188609000Y-68164000D02*
X188609000Y-66964000D01*
X190359000Y-66964000D02*
X190359000Y-68164000D01*
X215251000Y-58836000D02*
X215251000Y-60036000D01*
X213501000Y-60036000D02*
X213501000Y-58836000D01*
X213501000Y-68164000D02*
X213501000Y-66964000D01*
X215251000Y-66964000D02*
X215251000Y-68164000D01*
X211469000Y-68164000D02*
X211469000Y-66964000D01*
X213219000Y-66964000D02*
X213219000Y-68164000D01*
D13*
X68656200Y-68503800D02*
X68656200Y-58496200D01*
X68656200Y-58496200D02*
X78663800Y-58496200D01*
X78663800Y-68021200D02*
X78663800Y-58496200D01*
X78181200Y-68503800D02*
X68656200Y-68503800D01*
X78663800Y-68021200D02*
X78181200Y-68503800D01*
D14*
X78105000Y-67310000D02*
G75*
G03X78105000Y-67310000I-635000J0D01*
G01*
D13*
X242493800Y-58496200D02*
X242493800Y-68503800D01*
X242493800Y-68503800D02*
X232486200Y-68503800D01*
X232486200Y-58978800D02*
X232486200Y-68503800D01*
X232968800Y-58496200D02*
X242493800Y-58496200D01*
X232486200Y-58978800D02*
X232968800Y-58496200D01*
D14*
X234315000Y-59690000D02*
G75*
G03X234315000Y-59690000I-635000J0D01*
G01*
D12*
X98060000Y-83500000D02*
X91060000Y-83500000D01*
X105060000Y-77500000D02*
X99060000Y-77500000D01*
X98060000Y-49500000D02*
X99060000Y-49500000D01*
X98060000Y-49500000D02*
X93060000Y-49500000D01*
X100060000Y-43500000D02*
X107060000Y-43500000D01*
X93060000Y-49500000D02*
G75*
G03X88060000Y-54500000I0J-5000000D01*
G01*
X105060000Y-77500000D02*
G75*
G03X110060000Y-72500000I0J5000000D01*
G01*
X88060000Y-80500000D02*
G75*
G03X91060000Y-83500000I3000000J0D01*
G01*
X98060000Y-83500000D02*
G75*
G03X99060000Y-82500000I0J1000000D01*
G01*
X100060000Y-43500000D02*
G75*
G03X99060000Y-44500000I0J-1000000D01*
G01*
X110060000Y-46500000D02*
G75*
G03X107060000Y-43500000I-3000000J0D01*
G01*
X99060000Y-77500000D02*
X99060000Y-82500000D01*
X99060000Y-49500000D02*
X99060000Y-44500000D01*
X110060000Y-63500000D02*
X110060000Y-72500000D01*
X110060000Y-63500000D02*
X110060000Y-54500000D01*
X110060000Y-54500000D02*
X110060000Y-46500000D01*
X88060000Y-63500000D02*
X88060000Y-80500000D01*
X88060000Y-63500000D02*
X88060000Y-54500000D01*
D15*
X100856051Y-63500000D02*
G75*
G03X100856051Y-63500000I-1796051J0D01*
G01*
D16*
X100827314Y-63500000D02*
G75*
G03X100827314Y-63500000I-1767314J0D01*
G01*
X96560640Y-63500000D02*
X101559360Y-63500000D01*
X99060000Y-65999360D02*
X99060000Y-61000640D01*
D12*
X143780000Y-83500000D02*
X136780000Y-83500000D01*
X150780000Y-77500000D02*
X144780000Y-77500000D01*
X143780000Y-49500000D02*
X144780000Y-49500000D01*
X143780000Y-49500000D02*
X138780000Y-49500000D01*
X145780000Y-43500000D02*
X152780000Y-43500000D01*
X138780000Y-49500000D02*
G75*
G03X133780000Y-54500000I0J-5000000D01*
G01*
X150780000Y-77500000D02*
G75*
G03X155780000Y-72500000I0J5000000D01*
G01*
X133780000Y-80500000D02*
G75*
G03X136780000Y-83500000I3000000J0D01*
G01*
X143780000Y-83500000D02*
G75*
G03X144780000Y-82500000I0J1000000D01*
G01*
X145780000Y-43500000D02*
G75*
G03X144780000Y-44500000I0J-1000000D01*
G01*
X155780000Y-46500000D02*
G75*
G03X152780000Y-43500000I-3000000J0D01*
G01*
X144780000Y-77500000D02*
X144780000Y-82500000D01*
X144780000Y-49500000D02*
X144780000Y-44500000D01*
X155780000Y-63500000D02*
X155780000Y-72500000D01*
X155780000Y-63500000D02*
X155780000Y-54500000D01*
X155780000Y-54500000D02*
X155780000Y-46500000D01*
X133780000Y-63500000D02*
X133780000Y-80500000D01*
X133780000Y-63500000D02*
X133780000Y-54500000D01*
D15*
X146576051Y-63500000D02*
G75*
G03X146576051Y-63500000I-1796051J0D01*
G01*
D16*
X146547314Y-63500000D02*
G75*
G03X146547314Y-63500000I-1767314J0D01*
G01*
X142280640Y-63500000D02*
X147279360Y-63500000D01*
X144780000Y-65999360D02*
X144780000Y-61000640D01*
D12*
X166640000Y-83500000D02*
X159640000Y-83500000D01*
X173640000Y-77500000D02*
X167640000Y-77500000D01*
X166640000Y-49500000D02*
X167640000Y-49500000D01*
X166640000Y-49500000D02*
X161640000Y-49500000D01*
X168640000Y-43500000D02*
X175640000Y-43500000D01*
X161640000Y-49500000D02*
G75*
G03X156640000Y-54500000I0J-5000000D01*
G01*
X173640000Y-77500000D02*
G75*
G03X178640000Y-72500000I0J5000000D01*
G01*
X156640000Y-80500000D02*
G75*
G03X159640000Y-83500000I3000000J0D01*
G01*
X166640000Y-83500000D02*
G75*
G03X167640000Y-82500000I0J1000000D01*
G01*
X168640000Y-43500000D02*
G75*
G03X167640000Y-44500000I0J-1000000D01*
G01*
X178640000Y-46500000D02*
G75*
G03X175640000Y-43500000I-3000000J0D01*
G01*
X167640000Y-77500000D02*
X167640000Y-82500000D01*
X167640000Y-49500000D02*
X167640000Y-44500000D01*
X178640000Y-63500000D02*
X178640000Y-72500000D01*
X178640000Y-63500000D02*
X178640000Y-54500000D01*
X178640000Y-54500000D02*
X178640000Y-46500000D01*
X156640000Y-63500000D02*
X156640000Y-80500000D01*
X156640000Y-63500000D02*
X156640000Y-54500000D01*
D15*
X169436051Y-63500000D02*
G75*
G03X169436051Y-63500000I-1796051J0D01*
G01*
D16*
X169407314Y-63500000D02*
G75*
G03X169407314Y-63500000I-1767314J0D01*
G01*
X165140640Y-63500000D02*
X170139360Y-63500000D01*
X167640000Y-65999360D02*
X167640000Y-61000640D01*
D12*
X189500000Y-83500000D02*
X182500000Y-83500000D01*
X196500000Y-77500000D02*
X190500000Y-77500000D01*
X189500000Y-49500000D02*
X190500000Y-49500000D01*
X189500000Y-49500000D02*
X184500000Y-49500000D01*
X191500000Y-43500000D02*
X198500000Y-43500000D01*
X184500000Y-49500000D02*
G75*
G03X179500000Y-54500000I0J-5000000D01*
G01*
X196500000Y-77500000D02*
G75*
G03X201500000Y-72500000I0J5000000D01*
G01*
X179500000Y-80500000D02*
G75*
G03X182500000Y-83500000I3000000J0D01*
G01*
X189500000Y-83500000D02*
G75*
G03X190500000Y-82500000I0J1000000D01*
G01*
X191500000Y-43500000D02*
G75*
G03X190500000Y-44500000I0J-1000000D01*
G01*
X201500000Y-46500000D02*
G75*
G03X198500000Y-43500000I-3000000J0D01*
G01*
X190500000Y-77500000D02*
X190500000Y-82500000D01*
X190500000Y-49500000D02*
X190500000Y-44500000D01*
X201500000Y-63500000D02*
X201500000Y-72500000D01*
X201500000Y-63500000D02*
X201500000Y-54500000D01*
X201500000Y-54500000D02*
X201500000Y-46500000D01*
X179500000Y-63500000D02*
X179500000Y-80500000D01*
X179500000Y-63500000D02*
X179500000Y-54500000D01*
D15*
X192296051Y-63500000D02*
G75*
G03X192296051Y-63500000I-1796051J0D01*
G01*
D16*
X192267314Y-63500000D02*
G75*
G03X192267314Y-63500000I-1767314J0D01*
G01*
X188000640Y-63500000D02*
X192999360Y-63500000D01*
X190500000Y-65999360D02*
X190500000Y-61000640D01*
D12*
X212360000Y-83500000D02*
X205360000Y-83500000D01*
X219360000Y-77500000D02*
X213360000Y-77500000D01*
X212360000Y-49500000D02*
X213360000Y-49500000D01*
X212360000Y-49500000D02*
X207360000Y-49500000D01*
X214360000Y-43500000D02*
X221360000Y-43500000D01*
X207360000Y-49500000D02*
G75*
G03X202360000Y-54500000I0J-5000000D01*
G01*
X219360000Y-77500000D02*
G75*
G03X224360000Y-72500000I0J5000000D01*
G01*
X202360000Y-80500000D02*
G75*
G03X205360000Y-83500000I3000000J0D01*
G01*
X212360000Y-83500000D02*
G75*
G03X213360000Y-82500000I0J1000000D01*
G01*
X214360000Y-43500000D02*
G75*
G03X213360000Y-44500000I0J-1000000D01*
G01*
X224360000Y-46500000D02*
G75*
G03X221360000Y-43500000I-3000000J0D01*
G01*
X213360000Y-77500000D02*
X213360000Y-82500000D01*
X213360000Y-49500000D02*
X213360000Y-44500000D01*
X224360000Y-63500000D02*
X224360000Y-72500000D01*
X224360000Y-63500000D02*
X224360000Y-54500000D01*
X224360000Y-54500000D02*
X224360000Y-46500000D01*
X202360000Y-63500000D02*
X202360000Y-80500000D01*
X202360000Y-63500000D02*
X202360000Y-54500000D01*
D15*
X215156051Y-63500000D02*
G75*
G03X215156051Y-63500000I-1796051J0D01*
G01*
D16*
X215127314Y-63500000D02*
G75*
G03X215127314Y-63500000I-1767314J0D01*
G01*
X210860640Y-63500000D02*
X215859360Y-63500000D01*
X213360000Y-65999360D02*
X213360000Y-61000640D01*
D12*
X120920000Y-83500000D02*
X113920000Y-83500000D01*
X127920000Y-77500000D02*
X121920000Y-77500000D01*
X120920000Y-49500000D02*
X121920000Y-49500000D01*
X120920000Y-49500000D02*
X115920000Y-49500000D01*
X122920000Y-43500000D02*
X129920000Y-43500000D01*
X115920000Y-49500000D02*
G75*
G03X110920000Y-54500000I0J-5000000D01*
G01*
X127920000Y-77500000D02*
G75*
G03X132920000Y-72500000I0J5000000D01*
G01*
X110920000Y-80500000D02*
G75*
G03X113920000Y-83500000I3000000J0D01*
G01*
X120920000Y-83500000D02*
G75*
G03X121920000Y-82500000I0J1000000D01*
G01*
X122920000Y-43500000D02*
G75*
G03X121920000Y-44500000I0J-1000000D01*
G01*
X132920000Y-46500000D02*
G75*
G03X129920000Y-43500000I-3000000J0D01*
G01*
X121920000Y-77500000D02*
X121920000Y-82500000D01*
X121920000Y-49500000D02*
X121920000Y-44500000D01*
X132920000Y-63500000D02*
X132920000Y-72500000D01*
X132920000Y-63500000D02*
X132920000Y-54500000D01*
X132920000Y-54500000D02*
X132920000Y-46500000D01*
X110920000Y-63500000D02*
X110920000Y-80500000D01*
X110920000Y-63500000D02*
X110920000Y-54500000D01*
D15*
X123716051Y-63500000D02*
G75*
G03X123716051Y-63500000I-1796051J0D01*
G01*
D16*
X123687314Y-63500000D02*
G75*
G03X123687314Y-63500000I-1767314J0D01*
G01*
X119420640Y-63500000D02*
X124419360Y-63500000D01*
X121920000Y-65999360D02*
X121920000Y-61000640D01*
D12*
X246786000Y-47500000D02*
G75*
G03X246786000Y-47500000I-2286000J0D01*
G01*
X246786000Y-74500000D02*
G75*
G03X246786000Y-74500000I-2286000J0D01*
G01*
X78286000Y-47500000D02*
G75*
G03X78286000Y-47500000I-2286000J0D01*
G01*
X78286000Y-74500000D02*
G75*
G03X78286000Y-74500000I-2286000J0D01*
G01*
D17*
X57090000Y-73720000D02*
X59750000Y-73720000D01*
X57090000Y-50800000D02*
X57090000Y-73720000D01*
X59750000Y-50800000D02*
X59750000Y-73720000D01*
X57090000Y-50800000D02*
X59750000Y-50800000D01*
X57090000Y-49530000D02*
X57090000Y-48200000D01*
X57090000Y-48200000D02*
X58420000Y-48200000D01*
D18*
X224917000Y-73152000D02*
X224917000Y-74472800D01*
X224917000Y-74472800D02*
X222072200Y-74472800D01*
X222072200Y-74472800D02*
X222072200Y-73152000D01*
X222072200Y-73152000D02*
X224917000Y-73152000D01*
D14*
X222697040Y-73113900D02*
X222095060Y-73113900D01*
X222095060Y-73113900D02*
X222095060Y-73911460D01*
X224292160Y-73113900D02*
X224894140Y-73113900D01*
X224894140Y-73113900D02*
X224894140Y-73911460D01*
D17*
X71694600Y-50498900D02*
X70494600Y-50498900D01*
X70494600Y-48738900D02*
X71694600Y-48738900D01*
X70494600Y-50646440D02*
X71694600Y-50646440D01*
X71694600Y-52406440D02*
X70494600Y-52406440D01*
D12*
X104352381Y-73666666D02*
X103876190Y-74000000D01*
X104352381Y-74238095D02*
X103352381Y-74238095D01*
X103352381Y-73857142D01*
X103400000Y-73761904D01*
X103447619Y-73714285D01*
X103542857Y-73666666D01*
X103685714Y-73666666D01*
X103780952Y-73714285D01*
X103828571Y-73761904D01*
X103876190Y-73857142D01*
X103876190Y-74238095D01*
X103685714Y-72809523D02*
X104352381Y-72809523D01*
X103304762Y-73047619D02*
X104019048Y-73285714D01*
X104019048Y-72666666D01*
X127352381Y-73666666D02*
X126876190Y-74000000D01*
X127352381Y-74238095D02*
X126352381Y-74238095D01*
X126352381Y-73857142D01*
X126400000Y-73761904D01*
X126447619Y-73714285D01*
X126542857Y-73666666D01*
X126685714Y-73666666D01*
X126780952Y-73714285D01*
X126828571Y-73761904D01*
X126876190Y-73857142D01*
X126876190Y-74238095D01*
X126352381Y-72761904D02*
X126352381Y-73238095D01*
X126828571Y-73285714D01*
X126780952Y-73238095D01*
X126733333Y-73142857D01*
X126733333Y-72904761D01*
X126780952Y-72809523D01*
X126828571Y-72761904D01*
X126923810Y-72714285D01*
X127161905Y-72714285D01*
X127257143Y-72761904D01*
X127304762Y-72809523D01*
X127352381Y-72904761D01*
X127352381Y-73142857D01*
X127304762Y-73238095D01*
X127257143Y-73285714D01*
X150352381Y-73666666D02*
X149876190Y-74000000D01*
X150352381Y-74238095D02*
X149352381Y-74238095D01*
X149352381Y-73857142D01*
X149400000Y-73761904D01*
X149447619Y-73714285D01*
X149542857Y-73666666D01*
X149685714Y-73666666D01*
X149780952Y-73714285D01*
X149828571Y-73761904D01*
X149876190Y-73857142D01*
X149876190Y-74238095D01*
X149352381Y-72809523D02*
X149352381Y-73000000D01*
X149400000Y-73095238D01*
X149447619Y-73142857D01*
X149590476Y-73238095D01*
X149780952Y-73285714D01*
X150161905Y-73285714D01*
X150257143Y-73238095D01*
X150304762Y-73190476D01*
X150352381Y-73095238D01*
X150352381Y-72904761D01*
X150304762Y-72809523D01*
X150257143Y-72761904D01*
X150161905Y-72714285D01*
X149923810Y-72714285D01*
X149828571Y-72761904D01*
X149780952Y-72809523D01*
X149733333Y-72904761D01*
X149733333Y-73095238D01*
X149780952Y-73190476D01*
X149828571Y-73238095D01*
X149923810Y-73285714D01*
X172852381Y-73666666D02*
X172376190Y-74000000D01*
X172852381Y-74238095D02*
X171852381Y-74238095D01*
X171852381Y-73857142D01*
X171900000Y-73761904D01*
X171947619Y-73714285D01*
X172042857Y-73666666D01*
X172185714Y-73666666D01*
X172280952Y-73714285D01*
X172328571Y-73761904D01*
X172376190Y-73857142D01*
X172376190Y-74238095D01*
X171852381Y-73333333D02*
X171852381Y-72666666D01*
X172852381Y-73095238D01*
X195852381Y-73666666D02*
X195376190Y-74000000D01*
X195852381Y-74238095D02*
X194852381Y-74238095D01*
X194852381Y-73857142D01*
X194900000Y-73761904D01*
X194947619Y-73714285D01*
X195042857Y-73666666D01*
X195185714Y-73666666D01*
X195280952Y-73714285D01*
X195328571Y-73761904D01*
X195376190Y-73857142D01*
X195376190Y-74238095D01*
X195280952Y-73095238D02*
X195233333Y-73190476D01*
X195185714Y-73238095D01*
X195090476Y-73285714D01*
X195042857Y-73285714D01*
X194947619Y-73238095D01*
X194900000Y-73190476D01*
X194852381Y-73095238D01*
X194852381Y-72904761D01*
X194900000Y-72809523D01*
X194947619Y-72761904D01*
X195042857Y-72714285D01*
X195090476Y-72714285D01*
X195185714Y-72761904D01*
X195233333Y-72809523D01*
X195280952Y-72904761D01*
X195280952Y-73095238D01*
X195328571Y-73190476D01*
X195376190Y-73238095D01*
X195471429Y-73285714D01*
X195661905Y-73285714D01*
X195757143Y-73238095D01*
X195804762Y-73190476D01*
X195852381Y-73095238D01*
X195852381Y-72904761D01*
X195804762Y-72809523D01*
X195757143Y-72761904D01*
X195661905Y-72714285D01*
X195471429Y-72714285D01*
X195376190Y-72761904D01*
X195328571Y-72809523D01*
X195280952Y-72904761D01*
X218852381Y-73666666D02*
X218376190Y-74000000D01*
X218852381Y-74238095D02*
X217852381Y-74238095D01*
X217852381Y-73857142D01*
X217900000Y-73761904D01*
X217947619Y-73714285D01*
X218042857Y-73666666D01*
X218185714Y-73666666D01*
X218280952Y-73714285D01*
X218328571Y-73761904D01*
X218376190Y-73857142D01*
X218376190Y-74238095D01*
X218852381Y-73190476D02*
X218852381Y-73000000D01*
X218804762Y-72904761D01*
X218757143Y-72857142D01*
X218614286Y-72761904D01*
X218423810Y-72714285D01*
X218042857Y-72714285D01*
X217947619Y-72761904D01*
X217900000Y-72809523D01*
X217852381Y-72904761D01*
X217852381Y-73095238D01*
X217900000Y-73190476D01*
X217947619Y-73238095D01*
X218042857Y-73285714D01*
X218280952Y-73285714D01*
X218376190Y-73238095D01*
X218423810Y-73190476D01*
X218471429Y-73095238D01*
X218471429Y-72904761D01*
X218423810Y-72809523D01*
X218376190Y-72761904D01*
X218280952Y-72714285D01*
D14*
X70999048Y-62284429D02*
X70999048Y-60760429D01*
X70999048Y-61486143D02*
X71579619Y-61486143D01*
X71579619Y-62284429D02*
X71579619Y-60760429D01*
X71918286Y-60760429D02*
X72256953Y-62284429D01*
X72595619Y-60760429D01*
X73418095Y-60760429D02*
X72934286Y-60760429D01*
X72885905Y-61486143D01*
X72934286Y-61413571D01*
X73031048Y-61341000D01*
X73272952Y-61341000D01*
X73369714Y-61413571D01*
X73418095Y-61486143D01*
X73466476Y-61631286D01*
X73466476Y-61994143D01*
X73418095Y-62139286D01*
X73369714Y-62211857D01*
X73272952Y-62284429D01*
X73031048Y-62284429D01*
X72934286Y-62211857D01*
X72885905Y-62139286D01*
X74434095Y-62284429D02*
X73853524Y-62284429D01*
X74143810Y-62284429D02*
X74143810Y-60760429D01*
X74047048Y-60978143D01*
X73950286Y-61123286D01*
X73853524Y-61195857D01*
X74821143Y-60905571D02*
X74869524Y-60833000D01*
X74966286Y-60760429D01*
X75208190Y-60760429D01*
X75304952Y-60833000D01*
X75353333Y-60905571D01*
X75401714Y-61050714D01*
X75401714Y-61195857D01*
X75353333Y-61413571D01*
X74772762Y-62284429D01*
X75401714Y-62284429D01*
X75788762Y-60905571D02*
X75837143Y-60833000D01*
X75933905Y-60760429D01*
X76175809Y-60760429D01*
X76272571Y-60833000D01*
X76320952Y-60905571D01*
X76369333Y-61050714D01*
X76369333Y-61195857D01*
X76320952Y-61413571D01*
X75740381Y-62284429D01*
X76369333Y-62284429D01*
X234829048Y-66094429D02*
X234829048Y-64570429D01*
X234829048Y-65296143D02*
X235409619Y-65296143D01*
X235409619Y-66094429D02*
X235409619Y-64570429D01*
X235748286Y-64570429D02*
X236086953Y-66094429D01*
X236425619Y-64570429D01*
X237248095Y-64570429D02*
X236764286Y-64570429D01*
X236715905Y-65296143D01*
X236764286Y-65223571D01*
X236861048Y-65151000D01*
X237102952Y-65151000D01*
X237199714Y-65223571D01*
X237248095Y-65296143D01*
X237296476Y-65441286D01*
X237296476Y-65804143D01*
X237248095Y-65949286D01*
X237199714Y-66021857D01*
X237102952Y-66094429D01*
X236861048Y-66094429D01*
X236764286Y-66021857D01*
X236715905Y-65949286D01*
X238264095Y-66094429D02*
X237683524Y-66094429D01*
X237973810Y-66094429D02*
X237973810Y-64570429D01*
X237877048Y-64788143D01*
X237780286Y-64933286D01*
X237683524Y-65005857D01*
X238651143Y-64715571D02*
X238699524Y-64643000D01*
X238796286Y-64570429D01*
X239038190Y-64570429D01*
X239134952Y-64643000D01*
X239183333Y-64715571D01*
X239231714Y-64860714D01*
X239231714Y-65005857D01*
X239183333Y-65223571D01*
X238602762Y-66094429D01*
X239231714Y-66094429D01*
X239618762Y-64715571D02*
X239667143Y-64643000D01*
X239763905Y-64570429D01*
X240005809Y-64570429D01*
X240102571Y-64643000D01*
X240150952Y-64715571D01*
X240199333Y-64860714D01*
X240199333Y-65005857D01*
X240150952Y-65223571D01*
X239570381Y-66094429D01*
X240199333Y-66094429D01*
M02*
