M48
;DRILL file {KiCad 4.0.2-stable} date 13/08/2017 21:16:25
;FORMAT={-:-/ absolute / inch / decimal}
FMAT,2
INCH,TZ
T1C0.013
T2C0.039
T3C0.051
T4C0.120
%
G90
G05
M72
T1
X2.3683Y-2.2968
X2.4574Y-2.1252
X2.4664Y-2.7256
X2.5043Y-2.1668
X2.5368Y-2.7736
X2.543Y-2.102
X2.5929Y-2.6943
X2.6292Y-1.9586
X2.712Y-2.475
X2.7176Y-2.421
X2.7192Y-2.6592
X2.7375Y-2.5449
X2.8004Y-1.9908
X2.965Y-2.54
X2.98Y-2.565
X2.995Y-2.59
X3.01Y-2.615
X3.025Y-2.64
X3.04Y-2.665
X3.055Y-2.69
X3.1275Y-2.871
X3.1398Y-1.9291
X3.1398Y-1.9587
X3.1398Y-1.9882
X3.1398Y-2.0177
X3.1398Y-2.0472
X3.1398Y-2.0768
X3.1398Y-2.1063
X3.1398Y-2.1358
X3.1398Y-2.1654
X3.1398Y-2.1949
X3.1398Y-2.2244
X3.2076Y-2.2484
X3.2363Y-2.274
X3.37Y-2.695
X3.385Y-2.665
X3.4Y-2.635
X3.415Y-2.605
X3.43Y-2.58
X3.445Y-2.555
X3.46Y-2.53
X3.6342Y-2.1138
X3.8048Y-2.6973
X3.8274Y-2.4402
X3.8808Y-2.3022
X4.0077Y-2.6978
X4.4935Y-2.7863
X4.7118Y-2.697
X4.7147Y-2.4534
X4.8402Y-2.2568
X4.8918Y-2.7012
X5.1318Y-2.3544
X5.1786Y-2.2272
X5.1836Y-2.3972
X5.1894Y-2.4444
X5.196Y-2.5122
X5.2032Y-2.352
X5.2122Y-2.4818
X5.277Y-2.0325
X5.3595Y-2.121
X5.3904Y-2.3922
X6.0309Y-2.3531
X6.4472Y-2.3848
X6.5498Y-2.2248
X6.9165Y-2.3625
X6.9495Y-2.274
X7.1776Y-2.156
X7.1896Y-2.3616
X7.1952Y-2.576
X7.3014Y-2.4618
X7.3179Y-2.4309
X7.4994Y-2.6612
X7.5402Y-2.2649
X7.5837Y-2.4366
X7.6001Y-2.6937
X7.6072Y-2.32
X7.864Y-2.3744
X8.108Y-2.3688
X8.3082Y-2.6979
X8.321Y-2.438
X8.3808Y-2.3
X8.4342Y-2.7408
X8.6445Y-2.2245
X8.752Y-2.851
X9.162Y-2.228
X9.17Y-2.18
X9.1805Y-2.3067
X9.2Y-2.18
X9.23Y-2.18
X9.26Y-2.18
X9.29Y-2.18
X9.32Y-2.18
X9.3402Y-2.5422
X9.35Y-2.18
X9.38Y-2.18
X9.4095Y-2.8238
X9.41Y-2.18
X9.428Y-2.8512
X9.44Y-2.18
X9.464Y-2.955
X9.4653Y-2.8193
X9.47Y-2.18
X9.4788Y-2.5008
X9.4977Y-2.8242
X9.5108Y-2.4012
X9.5168Y-2.5024
X9.5548Y-2.7998
T2
X2.3Y-1.95
X2.3Y-2.05
X2.3Y-2.15
X2.3Y-2.25
X2.3Y-2.35
X2.3Y-2.45
X2.3Y-2.55
X2.3Y-2.65
X2.3Y-2.75
X2.3Y-2.85
T4
X2.9921Y-1.8701
X2.9921Y-2.9331
X9.626Y-1.8701
X9.626Y-2.9331
T3
X3.6901Y-2.5266G85X3.5981Y-2.4734
G05
X3.6904Y-2.3492G85X3.6372Y-2.2571
G05
X3.6106Y-2.6969G85X3.7169Y-2.6969
G05
X3.7228Y-2.1988G85X3.7228Y-2.0925
G05
X3.6768Y-2.8809G85X3.7689Y-2.8278
G05
X3.8734Y-2.1523G85X3.9266Y-2.0603
G05
X3.8734Y-2.9397G85X3.9266Y-2.8477
G05
X4.0311Y-2.1722G85X4.1232Y-2.1191
G05
X4.0772Y-2.9075G85X4.0772Y-2.8012
G05
X4.0831Y-2.3031G85X4.1894Y-2.3031
G05
X4.1628Y-2.7429G85X4.1096Y-2.6508
G05
X4.2019Y-2.5266G85X4.1099Y-2.4734
G05
X4.5901Y-2.5266G85X4.4981Y-2.4734
G05
X4.5904Y-2.3492G85X4.5372Y-2.2571
G05
X4.5106Y-2.6969G85X4.6169Y-2.6969
G05
X4.6228Y-2.1988G85X4.6228Y-2.0925
G05
X4.5768Y-2.8809G85X4.6689Y-2.8278
G05
X4.7734Y-2.1523G85X4.8266Y-2.0603
G05
X4.7734Y-2.9397G85X4.8266Y-2.8477
G05
X4.9311Y-2.1722G85X5.0232Y-2.1191
G05
X4.9772Y-2.9075G85X4.9772Y-2.8012
G05
X4.9831Y-2.3031G85X5.0894Y-2.3031
G05
X5.0628Y-2.7429G85X5.0096Y-2.6508
G05
X5.1019Y-2.5266G85X5.0099Y-2.4734
G05
X5.4901Y-2.5266G85X5.3981Y-2.4734
G05
X5.4904Y-2.3492G85X5.4372Y-2.2571
G05
X5.4106Y-2.6969G85X5.5169Y-2.6969
G05
X5.5228Y-2.1988G85X5.5228Y-2.0925
G05
X5.4768Y-2.8809G85X5.5689Y-2.8278
G05
X5.6734Y-2.1523G85X5.7266Y-2.0603
G05
X5.6734Y-2.9397G85X5.7266Y-2.8477
G05
X5.8311Y-2.1722G85X5.9232Y-2.1191
G05
X5.8772Y-2.9075G85X5.8772Y-2.8012
G05
X5.8831Y-2.3031G85X5.9894Y-2.3031
G05
X5.9628Y-2.7429G85X5.9096Y-2.6508
G05
X6.0019Y-2.5266G85X5.9099Y-2.4734
G05
X6.3901Y-2.5266G85X6.2981Y-2.4734
G05
X6.3904Y-2.3492G85X6.3372Y-2.2571
G05
X6.3106Y-2.6969G85X6.4169Y-2.6969
G05
X6.4228Y-2.1988G85X6.4228Y-2.0925
G05
X6.3768Y-2.8809G85X6.4689Y-2.8278
G05
X6.5734Y-2.1523G85X6.6266Y-2.0603
G05
X6.5734Y-2.9397G85X6.6266Y-2.8477
G05
X6.7311Y-2.1722G85X6.8232Y-2.1191
G05
X6.7772Y-2.9075G85X6.7772Y-2.8012
G05
X6.7831Y-2.3031G85X6.8894Y-2.3031
G05
X6.8628Y-2.7429G85X6.8096Y-2.6508
G05
X6.9019Y-2.5266G85X6.8099Y-2.4734
G05
X7.2901Y-2.5266G85X7.1981Y-2.4734
G05
X7.2904Y-2.3492G85X7.2372Y-2.2571
G05
X7.2106Y-2.6969G85X7.3169Y-2.6969
G05
X7.3228Y-2.1988G85X7.3228Y-2.0925
G05
X7.2768Y-2.8809G85X7.3689Y-2.8278
G05
X7.4734Y-2.1523G85X7.5266Y-2.0603
G05
X7.4734Y-2.9397G85X7.5266Y-2.8477
G05
X7.6311Y-2.1722G85X7.7232Y-2.1191
G05
X7.6772Y-2.9075G85X7.6772Y-2.8012
G05
X7.6831Y-2.3031G85X7.7894Y-2.3031
G05
X7.7628Y-2.7429G85X7.7096Y-2.6508
G05
X7.8019Y-2.5266G85X7.7099Y-2.4734
G05
X8.1901Y-2.5266G85X8.0981Y-2.4734
G05
X8.1904Y-2.3492G85X8.1372Y-2.2571
G05
X8.1106Y-2.6969G85X8.2169Y-2.6969
G05
X8.2228Y-2.1988G85X8.2228Y-2.0925
G05
X8.1768Y-2.8809G85X8.2689Y-2.8278
G05
X8.3734Y-2.1523G85X8.4266Y-2.0603
G05
X8.3734Y-2.9397G85X8.4266Y-2.8477
G05
X8.5311Y-2.1722G85X8.6232Y-2.1191
G05
X8.5772Y-2.9075G85X8.5772Y-2.8012
G05
X8.5831Y-2.3031G85X8.6894Y-2.3031
G05
X8.6628Y-2.7429G85X8.6096Y-2.6508
G05
X8.7019Y-2.5266G85X8.6099Y-2.4734
G05
T0
M30
